<svg xmlns="http://www.w3.org/2000/svg" preserveAspectRatio="xMinYMin" viewBox="0 0 1100 1100"><defs><g id="a"><path xmlns="http://www.w3.org/2000/svg" fill="#598C3E" stroke="#000" stroke-width="9" d="M370.7 396.6c12-7.6 25.7-14.5 31-17 24-11.2 43.8 13.6 51 32 9 23-6 55.5-15 76-7.2 16.4-41.1 48.5-58 62.5 33 27 101 83.5 109 93.5 10 12.5 12.5 34 0 51s-75-18-92.5-28-92.5-61-126.5-91.5 10-76 17-87.5 69-81.5 84-91Z" class="bodyfill"/><path xmlns="http://www.w3.org/2000/svg" fill="#598C3E" fill-rule="evenodd" d="M536.5 939.7c33.5 6 76.7 13.6 98 13.6l18.2.1c34.8.3 73.9.7 87.8-8.6 42-28 57-57 67-109 6-30.6 9-144 11.7-242.6 1-35.4 1.9-69 2.8-96L813.6 373c-.7-11-.3-22.1 1.3-33L830 236.8v-.5c0-25 0-66.2-25.5-92.5-32.5-33.5-55.5-42.5-78.5-45l-3.4-.4c-11.8-1.5-33.6-4.3-52 7.9-6.7 4.3-11.6 8.9-16.1 13-9.5 8.9-17.5 16.3-36.5 17.5-21.3 1.4-27.4-3.4-33.2-7.9-4.7-3.6-9.2-7.1-21.3-7.1-27 0-49 5.5-77 32s-58 63-79 101.5c-19.6 36-29 73.5-26.4 104 .8 10.7 1.5 23.7 2.2 37 1.3 24.5 2.6 49.6 5.3 61.5 2.2 10 5.7 19.7 9.2 29.4 6.8 18.6 13.7 37.6 11.8 60.6-3 35-9.6 99.5-20 121.5-10.6 22-8 47-4.6 61 2.9 11.4 6.3 21.4 11.4 30v72.5c-22 .2-68.6 1.3-84.8 5l-5.9 1.3c-18.6 4-30.5 6.7-44.1 26.2-1.2-6.5-6.9-23.8-12-29-3.5-3.5-31.4.8-44.5 3-2.4 25.5-4.4 78.7-4 87.5.5 11 5 46 16.5 49 10.7 2.8 18-10.6 21-16l.5-1c9-16.3 14.3-32.4 18-43.7 1.8-5.3 3.2-9.6 4.4-12.3 1.3-2.7 7.5-.4 18.4 3.5 12.8 4.7 32 11.7 57.7 16 21.2 3.6 38.5 3.5 57 3.4 12.8 0 26.3 0 42.2 1 .4 18.4 1.1 34.1 2.3 40.6l1 6.3c2.3 14.6 4.1 26.2 15.4 28.2 9.7 1.7 11.6-4 16-17.4l3-8.6a132 132 0 0 1 27-42c8.4 1.2 20.8 3.4 35 5.9Zm36.6-144a158 158 0 0 0 24 8c6.5 1.1 18.7 1.5 27.4 1.5l-1.9 45.5c-6.8-.4-23.1-.4-31 0l-1 .1c-7.6.4-15.2.8-18.4 1.3l.9-56.4Z" class="bodyfill" clip-rule="evenodd"/><path xmlns="http://www.w3.org/2000/svg" d="m536.5 939.7-.8 4.4.8-4.4Zm116.2 13.7v-4.5 4.5Zm87.8-8.6-2.4-3.8 2.4 3.8Zm67-109-4.4-.9 4.4.9Zm11.7-242.6 4.5.2-4.5-.2Zm2.8-96 4.5.2v-.4l-4.5.3ZM813.6 373l-4.5.3 4.5-.3Zm1.3-33-4.4-.7 4.4.7ZM830 236.8l4.5.6v-.6H830Zm0-.5h-4.5 4.5Zm-25.5-92.5 3.3-3.1-3.3 3Zm-78.5-45 .5-4.5-.5 4.5Zm-3.4-.4.6-4.5-.6 4.5Zm-52 7.9-2.5-3.8 2.4 3.8Zm-16.1 13 3 3.4-3-3.3ZM618 136.9l-.2-4.5.3 4.5Zm-33.2-7.9 2.7-3.6-2.7 3.6ZM407.6 255.3l-4-2.2 4 2.2Zm-26.6 104-4.4.4 4.4-.4Zm2.3 37 4.5-.3-4.5.3Zm5.3 61.5-4.4 1 4.4-1Zm9.2 29.4 4.2-1.6-4.2 1.6Zm11.8 60.6 4.4.4-4.4-.4Zm-13.2 212.5h4.5V759l-.6-1-3.9 2.3Zm0 72.5v4.5h4.5v-4.5h-4.5Zm-84.8 5 1 4.4-1-4.4Zm-5.9 1.3 1 4.4-1-4.4Zm-44.1 26.2-4.5.8 2 10.7 6.1-9-3.6-2.5Zm-12-29 3.1-3.2-3.1 3.2Zm-44.5 3-.8-4.5-3.4.6-.3 3.5 4.5.4Zm-4 87.5 4.4-.2-4.4.2Zm16.5 49-1.2 4.3 1.2-4.3Zm21-16 3.9 2.1-4-2.1Zm.5-1 3.9 2.2-4-2.2Zm18-43.7-4.3-1.4 4.3 1.4Zm4.4-12.3-4-2 4 2Zm18.4 3.5 1.5-4.2-1.5 4.2Zm57.7 16-.8 4.4.8-4.4Zm57 3.4v-4.5 4.5Zm42.2 1h4.5l-.1-4.1-4.1-.3-.3 4.5Zm2.3 40.6-4.5.7 4.4-.7Zm1 6.3-4.5.7 4.5-.7Zm15.4 28.2-.7 4.4.8-4.4Zm16-17.4-4.2-1.4 4.3 1.4Zm3-8.6 4.3 1.5-4.3-1.5Zm27-42 .7-4.5-2.2-.3-1.6 1.5 3.2 3.3Zm95.6-130 .8-4.5-.8 4.4Zm-24-8.1 1.8-4.1-6.2-2.8-.1 6.8 4.5.1Zm51.4 9.5 4.5.2.2-4.7h-4.7v4.5Zm-1.9 45.5-.2 4.5 4.6.3.1-4.6-4.5-.2Zm-31 0 .3 4.5-.3-4.5Zm-1 .1.2 4.5-.3-4.5Zm-18.4 1.3h-4.5v5.2l5.1-.7-.6-4.5ZM436 863.3l-3.3-3-1.1 1.3v1.7h4.4Zm32.6-2-1.3 4.3 1.3-4.3Zm57.4 4-1.7-4.2 1.8 4.2Zm25.6-88 3.5-2.8-3.5 2.8ZM573 642l3.9 2.3-3.9-2.3Zm60.4 209.2-.2 4.5.2-4.5Zm1.3 97.5c-21 0-63.6-7.6-97.3-13.5l-1.6 8.8c33.3 6 77 13.7 98.8 13.7v-9Zm18.2.1-18.3-.1v9l18.2.1v-9ZM738 941a38.6 38.6 0 0 1-13.2 4.7c-5.9 1.2-13 2-20.8 2.5-15.6 1-34 .9-51.3.7l-.1 9c17.3.2 36 .3 52-.7 8-.5 15.6-1.4 22-2.7a47 47 0 0 0 16.3-6l-5-7.5Zm65-106c-5 25.7-11 45.4-21 62a136.3 136.3 0 0 1-44 44l5 7.5c21.4-14.3 36.1-29 46.8-47 10.7-17.8 17-38.6 22-64.9l-8.8-1.7Zm11.7-242c-1.3 49.3-2.8 102.2-4.6 146.7-1.9 44.6-4.1 80.2-7 95.1l8.9 1.7c3-15.7 5.2-52 7-96.4 2-44.6 3.4-97.6 4.7-146.8l-9-.3Zm2.9-96c-1 27-2 60.6-2.9 96l9 .3c1-35.5 1.9-69 2.8-96l-9-.3Zm-8.5-124 8.5 124.5 9-.6-8.5-124.5-9 .7Zm1.4-33.9a159.6 159.6 0 0 0-1.4 34l9-.7c-.7-10.6-.3-21.4 1.3-32l-9-1.3Zm15.1-103-15.1 103 8.9 1.3 15.1-103-8.9-1.4Zm0 0v.6h9v-.5h-9ZM801.3 147c12 12.3 18 28.2 21.1 44.4a238 238 0 0 1 3.1 45h9c0-12.5 0-29.5-3.2-46.7-3.3-17.1-10-35-23.5-49l-6.5 6.3Zm-75.7-43.6c21.7 2.3 43.8 10.7 75.7 43.6l6.5-6.2c-33-34.1-57-43.8-81.3-46.4l-1 9Zm-3.6-.5 3.6.5 1-9c-1 0-2.2-.2-3.4-.4l-1.2 9Zm-49 7.2c17-11.1 37.1-8.7 49-7.2l1.2-8.9c-11.6-1.5-35-4.6-55.1 8.6l5 7.5Zm-15.5 12.7c4.6-4.2 9.3-8.5 15.5-12.7l-5-7.5c-6.9 4.6-12 9.4-16.6 13.6l6.1 6.6Zm-39.2 18.6A54 54 0 0 0 642 135c6-3.4 10.8-7.9 15.5-12.2l-6-6.6a72.9 72.9 0 0 1-13.9 10.9c-4.9 2.7-11 4.7-19.8 5.3l.5 9Zm-36.3-8.8c3 2.2 6.5 5 12.2 6.8a65.2 65.2 0 0 0 24.1 2l-.5-9c-10.4.7-16.6-.2-20.8-1.5a28.3 28.3 0 0 1-9.5-5.5l-5.5 7.2Zm-18.5-6.2c5.6 0 9.1.8 11.7 1.8 2.6 1.1 4.4 2.5 6.8 4.4l5.5-7.2c-2.3-1.8-5-3.9-8.9-5.5a38.8 38.8 0 0 0-15-2.5v9ZM489.6 157c13.7-13 25.7-20.6 37.4-25a99.8 99.8 0 0 1 36.5-5.8v-9c-13.8 0-26.6 1.4-39.7 6.3-13 5-26 13.4-40.3 27l6.1 6.5Zm-78.1 100.3c20.7-38 50.4-74.1 78.1-100.3l-6.1-6.6A434.2 434.2 0 0 0 403.6 253l7.9 4.3Zm-26 101.5c-2.4-29.4 6.7-66 26-101.5l-7.9-4.3c-20 36.5-29.6 75-27 106.6l9-.8Zm2.3 37.1c-.7-13.2-1.4-26.3-2.3-37l-9 .7c1 10.6 1.6 23.5 2.3 36.8l9-.5Zm5.1 60.8c-2.5-11.4-3.8-36-5-60.8l-9 .5c1.2 24.3 2.5 50 5.3 62.3l8.7-2Zm9.1 28.8c-3.5-9.7-7-19-9-28.8l-8.8 2c2.3 10.4 5.9 20.3 9.4 30l8.4-3.2Zm12 62.6c2.1-24.2-5.2-44-12-62.6l-8.4 3.1c6.8 18.8 13.3 36.8 11.5 58.7l9 .8Zm-20.4 123a120 120 0 0 0 7.5-24.3c2.1-9.8 4-21.2 5.7-32.9 3.3-23.3 5.7-48.3 7.2-65.8l-9-.8c-1.4 17.5-3.8 42.3-7 65.4a447.3 447.3 0 0 1-5.7 32.2c-2.1 9.6-4.4 17.3-6.8 22.3l8.1 4Zm-4.2 58a90.2 90.2 0 0 1 4.2-58l-8.1-3.9a99.2 99.2 0 0 0-4.8 64l8.7-2.1Zm10.9 28.8c-4.8-8-8-17.6-10.9-28.8l-8.7 2.2c2.9 11.6 6.4 22 11.9 31.2l7.7-4.6Zm.6 74.8v-72.5h-9v72.5h9Zm-88.4 9.4c7.7-1.8 23-3 39.6-3.7 16.3-.8 33.4-1.1 44.4-1.2v-9c-11.1 0-28.3.4-44.8 1.2-16.4.7-32.5 2-41.1 3.9l2 8.8Zm-5.8 1.3 5.8-1.3-2-8.8-5.8 1.3 2 8.8Zm-41.5 24.4a50.8 50.8 0 0 1 18.6-17.5 92.5 92.5 0 0 1 22.9-7l-2-8.7c-9.1 2-17.3 3.8-25 7.7a59.7 59.7 0 0 0-21.8 20.3l7.3 5.2Zm-18.8-28.4c.8.8 1.8 2.3 3 4.7a93.2 93.2 0 0 1 7.7 22l8.9-1.7a101.3 101.3 0 0 0-8.6-24.5c-1.3-2.6-2.9-5.1-4.7-6.9l-6.3 6.4Zm-40.6 4.2c6.6-1 16.7-2.7 25.6-3.6a105.5 105.5 0 0 1 15-.4c1 .2.6.4 0-.2l6.3-6.4a9 9 0 0 0-4.7-2.2 30 30 0 0 0-5-.4c-3.5 0-8 .2-12.5.7a451 451 0 0 0-26.2 3.6l1.5 9Zm-.3 82.9c-.3-8.5 1.7-61.5 4-86.9l-9-.8a1270 1270 0 0 0-4 88l9-.3Zm13.2 44.8c-1-.2-2.6-1.5-4.5-5-1.8-3.5-3.4-8.1-4.7-13.2a153 153 0 0 1-4-26.6l-9 .4c.3 5.7 1.6 17.5 4.3 28.4a69.4 69.4 0 0 0 5.4 15.1c2.2 4.1 5.4 8.4 10.2 9.6l2.3-8.7Zm15.9-13.8a47 47 0 0 1-6.9 10.1c-3 3.2-6 4.5-9 3.7l-2.3 8.7c7.7 2 13.8-2 17.8-6.1 4-4.2 6.8-9.4 8.3-12l-8-4.4Zm.5-1-.5 1 7.9 4.3.5-1-7.9-4.3Zm17.7-43c-3.7 11.4-8.8 27-17.7 43l7.9 4.4c9.3-16.8 14.7-33.2 18.4-44.5l-8.6-2.8Zm4.7-12.7c-1.4 3-3 7.6-4.7 12.8l8.6 2.8c1.8-5.5 3-9.4 4.2-11.8l-8.1-3.8Zm24 1.2c-5.4-2-10-3.6-13.4-4.4-1.6-.4-3.5-.7-5.2-.5a6.6 6.6 0 0 0-5.4 3.7l8.1 3.8a2.5 2.5 0 0 1-1.7 1.4h.7l1.6.3c2.7.7 6.7 2.1 12.3 4.2l3-8.5Zm56.8 15.7a307.6 307.6 0 0 1-56.9-15.7l-3 8.5c12.8 4.6 32.4 11.7 58.4 16.1l1.5-8.9Zm56.3 3.4c-18.6.1-35.4.2-56.3-3.4l-1.5 9c21.7 3.6 39.3 3.5 57.8 3.4v-9Zm42.5 1.1c-16-1.2-29.7-1.1-42.5-1v9c12.9-.1 26.2-.2 41.8 1l.7-9Zm6.4 44.2c-1-6-1.8-21.4-2.2-39.8l-9 .2c.4 18.1 1.1 34.3 2.3 41.1l8.9-1.5Zm1 6.4-1-6.4-8.9 1.5 1 6.3 9-1.4Zm11.8 24.5c-3.8-.7-6-2.8-7.8-6.8a78.9 78.9 0 0 1-4-17.7l-8.9 1.4c1.1 7 2.2 14.3 4.7 20 2.6 6 7 10.6 14.5 12l1.5-9Zm11-14.4a161 161 0 0 1-3 8.3c-.8 2.3-1.6 3.7-2.4 4.7-.6.8-1.2 1.2-1.8 1.4-.6.2-1.8.3-3.8 0l-1.5 8.8c2.8.5 5.5.5 8-.3 2.7-.8 4.7-2.4 6.3-4.4 1.5-2 2.6-4.3 3.6-6.8l3.2-8.9-8.6-2.8Zm3-8.7-3 8.7 8.6 2.8 2.9-8.5-8.5-3Zm28.1-43.8c-4.3 4.2-9.8 11-15 18.8a121.8 121.8 0 0 0-13 25l8.4 3a113 113 0 0 1 12.1-23c5-7.4 10-13.7 13.8-17.3l-6.3-6.5Zm38.9 4.8a1250 1250 0 0 0-35.1-6l-1.3 9c8.2 1.1 20.6 3.3 34.8 5.8l1.6-8.8Zm60.6-136a144.3 144.3 0 0 1-23-7.7l-3.7 8.2a152.2 152.2 0 0 0 25.1 8.3l1.6-8.8Zm26.6 1.4c-8.7 0-20.6-.4-26.6-1.4l-1.6 8.8c7 1.3 19.6 1.6 28.2 1.6v-9Zm2.6 50.2 2-45.5-9-.3-2 45.4 9 .4Zm-35.2 4.3c7.7-.4 23.8-.4 30.5 0l.5-9c-7-.4-23.5-.4-31.5 0l.5 9Zm-1.1 0h1l-.4-9-1.1.1.5 9Zm-18 1.4c3-.5 10.4-.9 18-1.3l-.5-9c-7.4.4-15.2.9-18.7 1.3l1.2 9Zm-4.2-61-.9 56.4 9 .2.9-56.4-9-.2Zm-129.2 70.7c-.1.1.3-.3 2-1a48.5 48.5 0 0 1 25.9.3l2.5-8.6c-8.8-2.6-17-2.9-23.3-2-3.2.4-6 1-8.2 1.9-2 .7-4.2 1.8-5.6 3.4l6.7 6Zm27.9-.7c8.7 2.6 16 8.2 21.3 14 2.6 3 4.7 5.8 6.2 8.2 1.5 2.5 2.1 4.2 2.3 4.7l8.8-1.8c-.5-2.1-1.8-4.8-3.5-7.6a63.7 63.7 0 0 0-7.2-9.5 56.8 56.8 0 0 0-25.4-16.6l-2.5 8.6Zm29.8 27v-.3h9l-.2-1.6-8.8 1.8Zm0-.3v-.4a4.3 4.3 0 0 1 .8-1.7 4.5 4.5 0 0 1 7.5.4l.4 1c.2.6.1.9.1.7v-.4l-9-.6v1.2c0 .2 0 .8.2 1.4l.5 1.1a4.5 4.5 0 0 0 8.3-1.4l.2-1.3h-9Zm8.9-.4c.1-2.5 2.3-14.4 21.8-22.5l-3.5-8.3c-22.8 9.5-26.9 24.5-27.3 30.2l9 .6Zm21.8-22.5c13.2-5.4 21.1-8.3 27.2-10a98 98 0 0 1 16.8-2.7l-1-9c-6.3.7-11.3 1.2-18.1 3-6.7 1.9-15 5-28.4 10.4l3.5 8.3ZM392.6 762.6a69 69 0 0 0 40 30l2.9-8.6a60 60 0 0 1-35.2-26l-7.7 4.6Zm48.7 164c-.6-21.2-.8-46-.8-63.3h-9c0 17.4.2 42.2.8 63.6l9-.2ZM693 779a58.8 58.8 0 0 1-27.2 16.2 128.2 128.2 0 0 1-38.4 5.7v9c14 0 28.4-2 41.2-6.2 12.6-4 24-10.3 31.3-19L693 779Zm-151.6-39.1c0-29.5 13.4-49 22.9-59.5l-6.7-6a95.7 95.7 0 0 0-25.2 65.5h9ZM574 791c-4.5-3-13.3-9.8-18.8-16.6l-7 5.6c6.3 7.9 16 15.2 20.7 18.5l5.1-7.5Zm-18.8-16.6a56.3 56.3 0 0 1-13.6-34.7h-9c0 16.2 7.5 30.1 15.6 40.3l7-5.6Zm-6.2-.8c-2.1 1.7-6 4.2-10.8 6.4a38.1 38.1 0 0 1-15 3.7v9a47 47 0 0 0 18.7-4.5c5.4-2.5 10-5.4 12.6-7.5l-5.5-7Zm-25.9 10c-11.2 0-20.7-1.5-24-2.3l-2 8.8c3.8.9 14 2.6 26 2.6v-9Zm52-136.1 1.8-3.2-7.7-4.6-2 3.2 7.8 4.6Zm1.8-3.2a100 100 0 0 0 13-29.7c3.7-14.5 6.3-35.2 6.3-67.4h-9c0 31.8-2.6 51.6-6.1 65.1-3.5 13.4-7.8 20.7-12 27.4l7.8 4.6Zm19.3-97.1c0-14.2-2-34.4-4.4-52.4-1.2-9-2.6-17.5-4-24.5a98 98 0 0 0-4-15.8l-8.3 3.4A92 92 0 0 1 579 472c1.3 6.8 2.7 15.1 3.9 24 2.4 17.9 4.3 37.6 4.3 51.2h9Zm30 308.2c2.4 0 4.7.1 7 .3l.5-9c-2.3-.1-4.8-.3-7.4-.3v9Zm7 .3 6.8.2v-9l-6.3-.2-.5 9Zm-236.7-18.5H412v-9h-15.6v9Z"/><path xmlns="http://www.w3.org/2000/svg" fill="#fff" stroke="#000" stroke-width="7" d="m832.5 222-.1.2v.1a20.7 20.7 0 0 1-6.5 6.4 14.5 14.5 0 0 1-7.4 2.6c-2.4 0-6.4-1.8-9.6-4.9-9-9.9-10.7-18.2-8.6-26.2 3.4-12.4 9.8-18.9 16-20 4.6.1 7.5 1.1 9.9 3.5 2.7 2.7 5.2 7.3 8.2 15.6 3 8.2 3.2 15.8-2 22.8Z"/><path xmlns="http://www.w3.org/2000/svg" d="M832.3 196.8s-19.6-7.7-15.7 11.6c3.9 19.2 26.2-1.3 15.7-11.6Z"/><path xmlns="http://www.w3.org/2000/svg" stroke="#000" stroke-miterlimit="10" stroke-width="9" d="M781.5 181.8s12-25.5 36-17"/><path xmlns="http://www.w3.org/2000/svg" fill="#598C3E" stroke="#000" stroke-miterlimit="10" stroke-width="9" d="M741 629.9s151-161 98-206c-73-83-169 44-195 210-21 79 74 49 179 100 16 8 65 11 66 1 1-9-3-10-10-12 10 3 21-3 20-13s-16-8-16-8 18-4 16-11-9-11-21-9c16 0 20-10 19-13-5-13-15-8-21-10-45 1-73-14-135-29Z" class="bodyfill"/><path xmlns="http://www.w3.org/2000/svg" fill="#AD5E39" stroke="#000" stroke-miterlimit="10" stroke-width="6" d="M827.2 260s-54-15-58 20 64 27 66 23c8-6 17-33-8-43Z"/><path xmlns="http://www.w3.org/2000/svg" stroke="#070707" stroke-width="8" d="M799 288.3h41.5"/><path xmlns="http://www.w3.org/2000/svg" fill="rgba(0,0,0,0.15)" fill-rule="evenodd" d="M796.5 211.3c1.3 8 5.4 20.8 9 24 4.5 4 11.4 5.2 15 4.2 2.6-.8 4.4-2.4 5-3V233h-.2c-1.2.6-4 1.8-6.8 1.8-2.5 0-6-1-10-4a50.5 50.5 0 0 1-7.5-9c-1-1.4-3.5-6.5-4.5-10.5Zm-13 102.5c-8.8-5.2-13.7-14-14.2-19 7.9 11.4 24 14 31.7 14.5a108.2 108.2 0 0 0 13.8.3l-1.4 9.7a49.6 49.6 0 0 1-29.9-5.5ZM374 468.3c-3.2-12.8-9.5-49-8-62.5l6-4.5 6.5-4.5c.9 8.8 1.9 22 2.7 33.7a833 833 0 0 0 1.8 22.8c.5 4 4 14.5 8 26.4 5 15 10.8 32.3 12.5 42.6l-4 4-4.5 4c-1.2-5-5.5-16-8-21.5-6.4-14-9-24.2-12.8-39.9l-.2-.6Zm442.1 74.2-36.3 93.1-15-4.2-15.4-4.1 66.7-84.8ZM648.5 682.3c5.5 16.8 35 35 59.5 46.5 15.6 7.3 70.7 21.8 101.5 26l1-22c-18.5-7.5-45-17-67.5-21.5-8.7-1.7-19.3-4-29.2-6.2l-22.8-4.8c-11.5-2.3-41.4-15-42.5-18Zm-21 164.3 1.5-36.9c6.8-.3 25.9-1.5 38-5.4 18.5-6 25-12 33-19.5l-60.5 62.4-12-.6ZM540 818.3c-12.2-11.7-26.7-19.5-39-26h-.1l-3.9-2.1c5 1.2 20.2 2.8 29.3 2.3 9-.5 20.7-6.7 24.7-9.2 4.5 4.8 9.4 9.2 14.7 13l2.8 2-.8 49.7-2.7-3a458.3 458.3 0 0 0-25-26.7Zm-139.4-16.9c-.2-9.4-.3-14.6.4-28.1a66.4 66.4 0 0 0 31.5 19c-4.9 6-8.8 14.2-12.3 21.4a67 67 0 0 1-8.2 14.6h-6.4a44 44 0 0 1-4.6 0c0-13-.2-20.8-.4-26.9Zm31.9 120.4-39.5-.5 12.5-15a131 131 0 0 0 16.9-26l9.1-18.5 1 60Zm-37-353c-1.5 13-5 37-7 48-1.7 9.5-5.5 25.8-8.5 34l9.5 6.5c2.3-6.7 4-17.2 5.1-25.3a393 393 0 0 0 6.7-46.7l1.2-10.5-7-6Z" clip-rule="evenodd"/></g><g id="d"><path xmlns="http://www.w3.org/2000/svg" fill="#598C3E" stroke="#000" stroke-width="9" d="M374 417.8a319.1 319.1 0 0 1 26-24c20.6-16.7 45.8 2.6 57.3 18.7 14.3 20.1 7.6 55.3 3.9 77.4-3 17.6-28.2 57-41.1 74.7 38.6 18.1 118.2 56.4 128.4 64.2a42.6 42.6 0 0 1 12.4 49.5c-8 19.5-77.1.7-96.5-4.7-19.4-5.5-104.6-36.7-145-58-40.3-21.4-8.7-76.2-4.7-89 4-13 47.1-95.9 59.4-108.8Z" class="bodyfill"/><path xmlns="http://www.w3.org/2000/svg" fill="#598C3E" fill-rule="evenodd" d="M510.7 942c33.8 4.9 96.2 14 123 14 38 0 82.9-4.4 101.5-11.3 55.6-20.6 76-38.5 77.7-85.8L817 757c3.4-81.8 7.9-190 10.2-254.8l17.4-134 13.2-117.5c0-25-13.3-63.7-44-85-34.4-23.6-52-27.2-66.2-30.1l-4.9-1A58.5 58.5 0 0 0 695 144c-5.8 3.8-10.5 7.5-14.8 10.8-10.9 8.4-19 14.7-34.6 15.7a60.9 60.9 0 0 1-39.2-9.2c-8-4.4-15.4-8.6-29.1-7.6-27 2.1-51.2 9.3-77 31-29.5 24.7-48.9 44.6-69.9 83.1-19.6 36-32.6 73.2-32.6 102.4 0 15.2-.5 29.4-1 43.6a666.5 666.5 0 0 0 0 77c.5 14.7 1.2 29.4.4 50.1-1.5 41.9-9.4 82.2-21.4 102.3-33.6 56.4-28.7 71.3-22.6 90.2l.1.5c10.1 31.1 26.6 40.5 34.7 44.9 0 0-.5 19.2 1 31.4 1.4 11.9 6.2 30 6.2 30h-14.3a411.3 411.3 0 0 0-65 3.3c-21.2 3.3-38.9 6-54.3 25.7-1.2-6.5-6.8-23.8-12-29-2.7-2.7-20.7.8-34.8 3.5l-11 2a1071 1071 0 0 0-2.7 85c.5 11 2.3 50.7 13.8 53.7 10.8 2.8 20.5-15 23.7-20.8l.5-.9c9-16.1 13-30.3 16-40.4 1.5-5 2.7-9 4-11.8 1.4-3 10.2-.7 25.2 3.4 13.1 3.6 31.1 8.6 53.3 12.3 20.6 3.5 35.8 3 52.3 2.5 12.3-.4 25.4-.8 42 .4.4 18.3 3 35.7 4.2 42.1l1.4 9c2 14.4 3.8 27.4 14.5 29.2 11.2 2 15.4-9.6 22.1-28.4l.5-1.3c5.6-15.6 16-31.8 24-39.5l12.1 1.8Zm43.8-154c6 5 22.1 16 26.2 17.5a75.9 75.9 0 0 0 31 5.8s.8 16.2 4.3 26c3.8 10.8 14.2 25.8 14.2 25.8-7-2.7-26.8-7.7-39.4-7.7a184 184 0 0 0-38.3 3.8l2-71.2Z" class="bodyfill" clip-rule="evenodd"/><path xmlns="http://www.w3.org/2000/svg" d="m510.7 942-.6 4.4.6-4.4Zm224.5 2.7 1.5 4.2-1.5-4.2Zm77.7-85.8-4.5-.2 4.5.2ZM817 757l-4.5-.2 4.5.2Zm10.2-254.8-4.4-.5v.4l4.4.1Zm17.4-134 4.4.6-4.4-.5Zm13.2-117.5 4.5.5v-.5H858Zm-44-85-2.6 3.8 2.6-3.7Zm-66.2-30.1 1-4.4-1 4.4Zm-4.9-1 1-4.5-1 4.4ZM695 144l-2.4-3.8 2.4 3.8Zm-14.8 10.8-2.8-3.6 2.8 3.6Zm-34.6 15.7-.3-4.4.3 4.4Zm-39.2-9.2 2.2-3.9-2.2 4Zm-29.1-7.6-.4-4.4.4 4.4Zm-77 31-2.8-3.5 2.9 3.4Zm-69.9 83.1-4-2.2 4 2.2Zm-33.7 146 4.5.2-4.5-.2Zm0 77-4.5.2 4.4-.2Zm.5 50.1-4.4-.2 4.4.2Zm-21.4 102.3-3.9-2.3 4 2.3Zm-22.6 90.2 4.3-1.4-4.3 1.4Zm.1.5 4.3-1.4-4.3 1.4Zm34.7 44.9h4.5v-2.7l-2.4-1.3-2.1 4Zm1 31.4-4.5.6 4.4-.6Zm6.2 30v4.5h5.8l-1.5-5.7-4.3 1.2Zm-14.3 0v4.5-4.5Zm-62.4 2.9.7 4.4-.7-4.4Zm-2.6.4-.7-4.4.7 4.4Zm-54.3 25.7-4.4.8 1.7 9.9 6.2-8-3.5-2.7Zm-12-29 3.2-3.2-3.2 3.2Zm-34.8 3.5.8 4.4-.8-4.4Zm-11 2-.7-4.5-3.5.6-.3 3.5 4.5.4Zm-2.7 85 4.5-.2-4.5.2Zm0 0-4.5.2 4.5-.2Zm13.8 53.7-1.1 4.3 1.1-4.3Zm23.7-20.8-4-2.1 4 2.1Zm.5-.9-4-2.2 4 2.2Zm16-40.4 4.4 1.2-4.4-1.2Zm4-11.8-4.1-1.9 4 2Zm25.2 3.4 1.2-4.3-1.2 4.3Zm53.3 12.3-.7 4.4.7-4.4Zm52.3 2.5.1 4.5-.1-4.5Zm42 .4 4.5-.1-.1-4-4.1-.4-.3 4.5Zm4.2 42.1-4.4.8 4.4-.8Zm1.4 9 4.4-.6-4.4.6Zm14.5 29.2.8-4.4-.8 4.4Zm22.1-28.4-4.2-1.5 4.2 1.5Zm.5-1.3-4.2-1.5 4.2 1.5Zm24-39.5.7-4.4-2.2-.3-1.6 1.5 3.2 3.2Zm82-134.6 1.7-4.2-1.6 4.2Zm-26.1-17.5 2.8-3.5-7-5.8-.3 9.2 4.5.1Zm57.2 23.3 4.5-.3-.2-4.2h-4.3v4.5Zm4.3 26 4.2-1.5-4.2 1.5Zm14.2 25.8-1.7 4.2 13.8 5.5-8.4-12.2-3.7 2.5Zm-77.7-4H548l-.2 5.9 5.8-1.4-1-4.4Zm-119 13.9-3.5-3-1 1.3v1.7h4.4Zm35-3.9 1.3-4.3-1.3 4.3Zm28.9 22.5-4-2.2 4 2.2Zm28.7-22.5 1.7 4.2-1.7-4.2Zm-136.5-89.6 2-4-2 4Zm43 116-4.5-.3 4.5.2ZM550 778l3.5-2.8-3.5 2.8Zm-3.2 2.7 3 3.4-3-3.4Zm-22.9 13-1-4.3 1 4.4Zm109.9 157.7c-26.3 0-88.4-9-122.3-14l-1.3 9c33.5 4.8 96.4 14 123.6 14v-9Zm99.9-11c-8.7 3.2-24.1 6-42.4 8-18.1 1.9-38.7 3-57.5 3v9c19.1 0 40-1.1 58.5-3 18.3-2 34.7-5 44.5-8.6l-3.1-8.4Zm74.8-81.8c-.9 23-6.2 38.1-17.5 50-11.5 12.2-29.6 21.5-57.3 31.8l3.1 8.4c27.9-10.3 47.7-20.2 60.8-34 13.2-14 19-31.5 19.9-55.9l-9-.3Zm4.2-101.8-4.2 101.8 9 .3 4.2-101.7-9-.4Zm10.2-254.7c-2.3 64.7-6.8 172.9-10.2 254.7l9 .4c3.4-81.8 7.9-190 10.2-254.8l-9-.3Zm17.4-134.4-17.3 134 8.9 1.1L849 369l-8.9-1.1Zm13.2-117.5L840.2 368l9 1 13.2-117.6-9-1Zm-42.1-80.7c29.3 20.2 42.1 57.4 42.1 81.2h9c0-26.1-13.8-66.4-46-88.6l-5.1 7.4ZM746.8 140c7 1.4 14.6 3 24.7 7 10.1 4.1 22.8 10.8 39.8 22.5l5.1-7.4c-17.4-12-30.7-19-41.5-23.4-10.9-4.4-19.1-6-26.3-7.5l-1.8 8.8Zm-5-1 5 1 1.8-8.8-4.8-1-2 8.7Zm-44.3 8.6a54 54 0 0 1 44.3-8.7l2-8.8a63 63 0 0 0-51.2 10l5 7.5ZM683 158.4c4.3-3.4 8.9-7 14.5-10.7l-5-7.5c-6 4-10.8 7.7-15 11l5.5 7.2ZM646 175c17-1 26-8.2 37-16.6l-5.6-7.2c-10.8 8.5-18 14-32 14.9l.5 9Zm-41.8-9.7c4.5 2.5 9.6 5.4 16.2 7.4A71 71 0 0 0 646 175l-.6-9a62 62 0 0 1-22.3-2c-5.6-1.6-9.9-4-14.4-6.6l-4.4 7.9Zm-26.6-7c12.4-1 18.8 2.6 26.6 7l4.4-7.9c-8.1-4.6-16.5-9.3-31.7-8.1l.7 9ZM503.3 188c24.9-20.9 48.2-27.8 74.3-29.9l-.7-9a131.1 131.1 0 0 0-79.4 32l5.8 6.9Zm-69 81.9c20.7-38 39.7-57.4 69-82l-5.8-6.8c-29.9 25-49.7 45.3-71 84.4l7.9 4.4Zm-32 100.2c0-28 12.6-64.5 32-100.2l-7.8-4.4c-19.8 36.3-33.2 74.3-33.2 104.6h9Zm-1 43.8c.4-14.2 1-28.5 1-43.8h-9c0 15.1-.5 29.2-1 43.5l9 .3Zm-1.1 44c0-15.4.5-29.7 1-44l-9-.3c-.5 14.2-1 28.7-1 44.3h9Zm1 32.6c-.5-10.2-1-20.4-1-32.6h-9c0 12.5.5 22.8 1 33l9-.4Zm.5 50.5c.8-21 .1-35.8-.6-50.5l-9 .4a540 540 0 0 1 .6 49.7l9 .4Zm-22 104.4a149.8 149.8 0 0 0 15.1-44.4c3.8-18 6.2-38.9 7-60l-9-.4c-.8 20.8-3.2 41-6.8 58.6a141.4 141.4 0 0 1-14 41.6l7.7 4.6ZM357.5 732c-3-9.3-5.5-16.9-3.5-28.9 2.1-12.3 9-29.5 25.7-57.6l-7.8-4.6c-16.8 28.3-24.4 46.7-26.7 60.7-2.4 14.3.6 23.7 3.7 33.2l8.6-2.8Zm.1.5-.1-.5-8.6 2.8.2.4 8.5-2.7Zm32.5 42.3a57.3 57.3 0 0 1-15.4-11.5 79.7 79.7 0 0 1-17-30.8l-8.6 2.7a88.6 88.6 0 0 0 19 34.2c7 7.3 13.5 11 17.7 13.3l4.3-7.9Zm3.3 34.9a198.5 198.5 0 0 1-1-30.6v-.2l-4.4-.1-4.5-.1v.8a341.4 341.4 0 0 0 1 31.3l9-1.1Zm1.8 30.5 4.3-1.2v-.2l-.2-.5a265.2 265.2 0 0 1-5.9-28.6l-9 1a207.2 207.2 0 0 0 6.2 29.8l.2.6v.2l4.4-1.1Zm-14.3 4.5h14.3v-9H381v9Zm-61.7 2.8c19.1-3 42-2.9 61.7-2.8v-9c-19.6 0-43.1-.2-63.1 3l1.4 8.8Zm-2.6.5 2.6-.5-1.4-8.8-2.6.4 1.4 8.9ZM265 872c14.3-18.1 30.3-20.7 51.5-24l-1.4-9c-21.1 3.4-40.5 6.3-57.1 27.4l7 5.6Zm-18.7-28.6c.8.8 1.9 2.4 3.1 4.7a93.2 93.2 0 0 1 7.7 22l8.8-1.7a101.3 101.3 0 0 0-8.5-24.5c-1.3-2.5-3-5-4.7-6.9l-6.4 6.4Zm-30.8 4.7c7.1-1.4 15-2.9 21.5-3.7a62.5 62.5 0 0 1 10-.5c.4 0 0 0-.7-.5l6.4-6.4a7.7 7.7 0 0 0-4-2c-1.2-.2-2.5-.3-3.8-.3a71 71 0 0 0-9.1.7c-6.8 1-15 2.5-22 3.8l1.7 8.9Zm-11 2 11-2-1.7-8.9c-4.2.8-8 1.6-10.8 2l1.4 9Zm1 80.4c-.4-8.6.4-59 2.7-84.4l-9-.8c-2.3 25.7-3.1 76.6-2.7 85.6l9-.4Zm0 0-9 .4 9-.4ZM216 980c-.2 0-.7-.3-1.5-1.2-.8-1-1.6-2.3-2.4-4.2-1.6-3.9-2.8-9-3.8-14.8a256.3 256.3 0 0 1-2.7-29.3l-9 .4c.3 5.5.8 18.4 2.8 30.4 1 6 2.4 12 4.4 16.7 1 2.4 2.2 4.7 3.8 6.5a12 12 0 0 0 6.2 4.2l2.2-8.7Zm18.6-18.5c-1.6 2.9-4.6 8.4-8.4 12.8-1.9 2.2-3.8 3.9-5.6 4.9-1.8 1-3.2 1.2-4.6.8l-2.2 8.7c4 1.1 7.9.1 11-1.6 3.2-1.7 6-4.3 8.2-7 4.6-5.1 8-11.5 9.5-14.3l-7.9-4.3Zm.6-1-.6 1 8 4.3.4-1-7.8-4.3Zm15.6-39.5c-3 10.1-7 23.9-15.6 39.5l7.8 4.4c9.2-16.6 13.5-31.2 16.5-41.4l-8.7-2.5Zm4.2-12.4c-1.5 3.2-2.8 7.6-4.2 12.4l8.7 2.5a87 87 0 0 1 3.6-11l-8.1-3.9Zm30.5 1c-7.4-2-13.6-3.7-18.2-4.5-2.2-.4-4.4-.6-6.3-.4-1.9.2-4.7 1-6 3.9l8.1 3.8c-.6 1.3-1.7 1.3-1 1.2.5 0 1.7 0 3.7.4 4 .6 9.7 2.2 17.3 4.3l2.4-8.7Zm52.8 12.2c-21.9-3.7-39.7-8.6-52.8-12.2l-2.4 8.7c13.2 3.6 31.3 8.6 53.8 12.3l1.4-8.8Zm51.4 2.4a237 237 0 0 1-51.4-2.4l-1.4 8.8c21 3.6 36.6 3 53.1 2.6l-.3-9Zm42.5.4c-16.9-1.2-30.1-.8-42.5-.4l.3 9c12.3-.4 25.2-.8 41.5.4l.7-9Zm8.3 45.9c-1-6.4-3.7-23.5-4.1-41.5l-9 .2c.4 18.6 3.1 36.2 4.3 42.8l8.8-1.5Zm1.4 9.1c-.4-3-.8-6-1.4-9.1l-8.8 1.5 1.3 8.9 9-1.3Zm10.9 25.4c-3.2-.5-5.4-2.6-7.1-7.1-1.8-4.7-2.8-11-3.8-18.3L433 981c1 7 2 14.4 4.3 20.3 2.3 6 6.4 11.4 14 12.7l1.5-8.9Zm17-25.5c-3.4 9.6-5.9 16.6-8.8 21a11.4 11.4 0 0 1-3.9 4c-1 .6-2.4.8-4.3.5l-1.6 8.9c3.7.6 7.1.2 10.2-1.5 3-1.6 5.2-4 7.1-7 3.7-5.5 6.6-13.7 9.9-22.8l-8.5-3Zm.6-1.3-.5 1.3 8.5 3 .4-1.3-8.4-3Zm25.1-41.2c-8.5 8.2-19.3 25-25.1 41.2l8.4 3c5.4-15 15.6-30.6 23-37.7l-6.3-6.5Zm15.9.5-12.1-1.7-1.3 8.9 12 1.7 1.4-8.9Zm71-136a200.4 200.4 0 0 1-25-16.8l-5.8 6.9a221.7 221.7 0 0 0 27.5 18.2l3.2-8.4Zm29.3 5.4c-8.3 0-16.2-.4-29.4-5.5l-3.2 8.4c14.5 5.7 23.6 6 32.6 6v-9Zm8.5 29a80 80 0 0 1-3.8-22.2l-.2-1.9v-.6l-4.5.2-4.5.2v.2a67.7 67.7 0 0 0 .2 2.6c.1 1.7.3 4.1.7 6.8.6 5.4 1.7 12.3 3.6 17.7l8.5-3Zm10 27.3 3.7-2.5-.1-.2a89.5 89.5 0 0 1-5.5-8.4c-3-5.1-6.4-11.2-8.1-16.2l-8.5 3c2 5.9 5.8 12.7 9 17.8a204.4 204.4 0 0 0 5.3 8.4l.3.5.1.2 3.8-2.6Zm-39.4-3.2c5.8 0 13.5 1.1 20.8 2.7 7.3 1.6 13.7 3.5 17 4.7l3.2-8.3c-3.8-1.6-10.8-3.6-18.3-5.2s-16-3-22.7-3v9Zm-37.2 3.7c9.3-2.3 24.7-3.7 37.2-3.7v-9c-13 0-29.1 1.4-39.4 4l2.2 8.7ZM550 788l-2 71.2 9 .2 2-71.2-9-.2Zm-113.2 88 .4-.2a38.5 38.5 0 0 1 9.3-3 45 45 0 0 1 20.8.7l2.5-8.6a54 54 0 0 0-37.1 3.1 11 11 0 0 0-2.7 2l6.8 6Zm30.5-2.5c9.5 2.8 16 7.1 19.8 11 2 2 3.3 3.8 4.1 5.2 1 1.6 1 2.4 1 2.2h9c0-2.1-1-4.5-2.1-6.6a33.3 33.3 0 0 0-5.6-7.2c-5-5-12.8-10-23.7-13.2l-2.5 8.6Zm24.9 18.4v1.3c.1.2.3 1.3 1.1 2.3a4.5 4.5 0 0 0 5.5 1c1-.4 1.5-1.1 1.6-1.2l.4-.6.5-.8-7.8-4.4-.2.3v.1-.2c.1 0 .6-.7 1.5-1.1a4.5 4.5 0 0 1 6.3 3v.3h-9Zm9 2c1.5-2.4 7-12.4 26.6-20.5l-3.4-8.4c-22 9.2-28.8 20.7-31 24.5l7.9 4.4Zm26.6-20.5c13.2-5.5 21.1-8.4 27.3-10a98 98 0 0 1 16.8-2.8l-1-9c-6.4.7-11.4 1.3-18.2 3-6.7 1.9-15 5-28.3 10.4l3.4 8.4ZM386 782.8l1.6.8 4-8-1.7-.9-3.9 8.1Zm1.6.8c4.3 2 7.8 3.8 11.8 4.8 4 1 8.3 1.3 14.2.8l-.7-9c-5.3.4-8.5.2-11.3-.5a54 54 0 0 1-10-4.2l-4 8.1ZM436.4 929c-.3-12 .2-22.8.7-33.2l-9-.5c-.5 10.4-1 21.5-.7 34l9-.3Zm.7-33.2c.4-7.7.8-15.2.8-22.7h-9c0 7.2-.4 14.5-.8 22.2l9 .5Zm246.3-108c-5.5 6.6-16.2 11.5-29.6 14.7a186.5 186.5 0 0 1-41.5 4.4v9c13.8 0 29.5-1.4 43.6-4.7 13.8-3.3 27-8.7 34.4-17.6l-6.9-5.8Zm-146.7-47.4c0-30.4 7-46 21.8-54.6L554 678c-19 11-26.3 30.9-26.3 62.4h9ZM570 794c-5-4.7-12.1-13-16.7-18.7l-7 5.7c4.7 5.8 12.1 14.5 17.5 19.5l6.2-6.5Zm-16.7-18.7c-8-9.9-16.7-21.8-16.7-34.9h-9c0 16.7 11 31 18.6 40.6l7-5.7Zm-6.3-.7c-1.1.8-2.3 1.9-3.4 3l6 6.6c1.3-1.1 2.2-2 3-2.5l-5.6-7.1Zm-3.4 3a44.2 44.2 0 0 1-20.8 11.9l2 8.8c12.5-2.9 20.1-9.8 24.9-14.1l-6-6.7ZM523 789.4a49.3 49.3 0 0 1-22 0l-2 8.7c3.8 1 13.7 2.8 26 0l-2-8.7Zm52.4-163.8c8.8-15 19.7-44.8 25.2-72.6l-8.8-1.8c-5.4 27.1-16 55.9-24.2 69.9l7.8 4.5Zm25.2-72.6c5.6-28.1 3.2-61.7 0-75l-8.8 2a203 203 0 0 1 0 71.2l8.8 1.8Zm26.3 311.7c2 .7 4.9 2.6 8.1 5.2 3.1 2.4 6.2 5.1 8.3 7l6-6.5c-2.1-2-5.3-5-8.7-7.6a43.4 43.4 0 0 0-10.6-6.5l-3 8.4ZM393 844.1l15.2 8.6 4.4-7.8-15.2-8.6-4.4 7.8Z"/><path xmlns="http://www.w3.org/2000/svg" fill="#fff" stroke="#000" stroke-width="7" d="M863.4 253.8v.1l-.1.2a20.7 20.7 0 0 1-6.4 6.4 14.5 14.5 0 0 1-7.5 2.5c-2.3 0-6.4-1.7-9.5-4.8-9-10-10.7-18.2-8.7-26.3 3.4-12.3 9.9-18.8 16.1-19.9 4.6 0 7.4 1 9.9 3.5 2.7 2.6 5.2 7.3 8.2 15.5 3 8.3 3.1 15.8-2 22.8Z"/><path xmlns="http://www.w3.org/2000/svg" d="M856.4 228.6s-19.6-7.7-15.7 11.5c4 19.2 26.2-1.3 15.7-11.5Z"/><path xmlns="http://www.w3.org/2000/svg" stroke="#000" stroke-miterlimit="10" stroke-width="9" d="M808.2 217.3s12.4-19.8 33.2-19.8"/><path xmlns="http://www.w3.org/2000/svg" fill="#598C3E" stroke="#000" stroke-miterlimit="10" stroke-width="9" d="M801 641.9s112-190.2 50.4-222.5c-89.5-65-155.3 80-144.2 247.7-3.1 81.6 83 31.5 196.6 58.2 17.4 4.3 65.8-3.5 64.6-13.5-1-9-5.1-9-12.4-9.5 10.4.7 19.8-7.5 16.7-17-3.2-9.6-17.4-4.4-17.4-4.4s16.7-7.8 13.2-14.2c-3.5-6.4-11.2-8.8-22.5-4.2 15.6-3.5 17.4-14.1 15.7-16.8-7.7-11.6-16.4-4.5-22.7-5.2-43.6 10.9-74.3 2.4-138 1.4Z" class="bodyfill"/><path xmlns="http://www.w3.org/2000/svg" fill="#AD5E39" stroke="#000" stroke-miterlimit="10" stroke-width="6" d="M851.5 298.3s-54-15-58 20 64 27 66 23c8-6 17-33-8-43Z"/><path xmlns="http://www.w3.org/2000/svg" stroke="#070707" stroke-width="8" d="M823.4 326.6c13.4-5.9 28.7-6 42.3-.4l1 .4"/><path xmlns="http://www.w3.org/2000/svg" fill="rgba(0,0,0,0.15)" fill-rule="evenodd" d="M827.4 242.4a40 40 0 0 0 5.5 21.5c3.6 4.8 8.6 6.6 12.2 6.9 3 .2 5.6-.6 6.1-1l.4-3.5c-1.7.5-4.2.2-7-1h-.2c-2.2-1-4.6-2-7.8-5.6a57.2 57.2 0 0 1-6.8-10c-.8-1.5-1.9-3.8-2.4-7.3ZM809.8 354c-8.8-5.2-16.1-16.7-16.6-21.7 8.4 13.1 26.3 14.8 34.3 15.4 5.9.4 9 .3 11.8.3h3l-1.2 10.7c-9.3 1.2-22.5.5-31.3-4.7ZM380.4 494.5c.5 16.8 1 32 1 40.7 0 9.7-1.7 70.2-16.7 96.3l10 4.1c5.2-10.3 8.4-23.6 10.2-31.4l1-4.2c.8-2.7 6-30.3 6.8-60.7 0-22.8-.2-48.4-.5-71-.3-31.1-.5-56.6 0-61.3l-12.5 11.5c-1.4 9.2-.3 45.2.7 76ZM818.2 620l-.8 17.9-8.8-.3 9.6-17.6ZM534 825.3a147 147 0 0 0-34.8-27c5 1.2 18.2 3.3 31.3-1.6a55.7 55.7 0 0 0 19-12v.2c.3.2.5.5.5.6l-.5 19.5c-.5 15-1.1 35.3-1.4 51l-3.5 1.2v-2c.1-6 .4-19.3-10.6-29.9Zm112.4-12.2c-10.5 1.8-19.5 2.2-26.1 2.4l-3.8.2s.9 13.1 4.2 21.5c3.4 8.4 10.7 19.8 10.7 19.8s5.1 2.8 7 4.2a487 487 0 0 1 10.8 9.2c-4.1-28.8 9.2-42.8 27-61.6 4.5-4.6 9.1-9.5 13.9-15-10 11.6-28.6 16.7-43.7 19.3Zm-249.9 13.5c-4.1-17.6-5-21.8-4-40.7 2.6 1.3 7.6 3 10.5 3.2 5.7.4 7.7.3 10.2.1h.4c-9.1 11.2-3.3 48.5-1 55.6l-3.7-2a326 326 0 0 1-9.9-5.7l-2.5-10.5Zm32.4 44.8c0 10.3-.4 18.4-.8 26.4-.5 8-.9 16-.9 26.3 0 0-10.2-.3-16.8-.3-6.4 0-16.5.3-16.5.3a98.5 98.5 0 0 0 33.7-48.6l1.3-4.1Z" clip-rule="evenodd"/><path xmlns="http://www.w3.org/2000/svg" fill="rgba(0,0,0,0.15)" d="M763 736.8c-30.2-6.4-41-10.7-46.6-27.5 17.7 13.1 39.5 11.5 50 12 15.3.6 25.4 0 47.5-.5L813 742c-22-1-33.3-1.7-50.2-5.3Z"/></g><g id="c"><path xmlns="http://www.w3.org/2000/svg" fill="#598C3E" stroke="#000" stroke-width="9" d="M425.7 456.9a319 319 0 0 1 22.9-27c18.4-19 45.8-2.9 59 11.7 16.7 18.3 14.3 54 13.2 76.4-.9 17.9-21.2 60-31.9 79 40.5 13.5 124.1 42 135.2 48.5a42.6 42.6 0 0 1 18.2 47.7c-5.6 20.3-76.5 9.9-96.4 6.8-20-3-108.2-24-150.8-40.3-42.7-16.4-17.8-74.6-15.4-87.8 2.4-13.3 35.4-100.8 46-115Z" class="bodyfill"/><path xmlns="http://www.w3.org/2000/svg" fill="#598C3E" fill-rule="evenodd" d="M566.3 947.5c19 1.5 41.2 3.2 67 4.6 48 2.5 95.7-3 116.9-17.3 29.7-20 56.8-39.4 53-92.2l-1-9.2c-1.9-13.9-4.8-36.6-1-51.5 7.6-30.2 21.8-67.6 36.7-106.8 24.8-64.9 51.5-134.9 53.3-186.3l24.3-99.2a155 155 0 0 0 4-48.2l-3.5-47.8c0-25-34-76.4-82.2-86-32.1-6.5-46.4 3.2-59.7 12-5.6 3.8-11 7.5-17.5 9.7-10.4 3.6-26.4 3.1-44.3-10.3-26.1-19.6-48.8-22.8-81.6-11.4-23.1 8-25.8 9.6-51 24.4a6372 6372 0 0 1-8.4 5c-17.3 10-36 26.1-57.6 50-33 36.4-50.4 90.3-61 137.8-4.6 20.1-2.9 54.1-1.4 84.8.7 14.2 1.4 27.7 1.4 38.8 0 31.6-30 70.3-51.8 98.6a274 274 0 0 0-19.5 27c-12 21.3-17 37.4-10.2 60a63.7 63.7 0 0 0 20.9 32l3 2.7-2 72c-22.9-4.8-63.3 2.9-79.6 6.6l-6.3 1.4c-18.7 4-32.2 7-45.7 26.3-1.1-6.5-4.9-26.3-10.1-31.5-3.5-3.5-31.7.1-45 2.3-2.2 25.5-5.8 80.2-5.4 89 .5 11 5 46 16.5 49 10.8 2.8 18-10.6 21-16l.5-1c9.1-16.3 14.4-32.4 18.1-43.7 1.8-5.3 3.2-9.6 4.4-12.3 1.4-3 8.2-.8 20.7 3 12.4 3.8 30.4 9.4 54.1 13.4 33.8 5.7 51.3 5.1 85 4.2l7-.2a383 383 0 0 0 3 41.8l.6 4.1c2.7 16 5.2 31 17.1 33 9.5 1.7 11.9-5.6 16.3-19l3.3-9.6c5.6-15.6 16.8-31.9 29.4-36.8 16.2-1.3 38.3.4 68.3 2.8Zm73-84.2c-17.5-5.5-39.8-5-47.7-4.6l-7 .4c-4.9.2-9 .4-11.3.7v-56.5c5.6 3 9 2.8 11.4 2.6h1.5s7.9 19.2 20 31.9c10.4 10.6 33 25.5 33 25.5Z" class="bodyfill" clip-rule="evenodd"/><path xmlns="http://www.w3.org/2000/svg" d="m633.3 952-.2 4.6.2-4.5Zm-67-4.5.3-4.5-.3 4.5Zm183.9-12.7 2.5 3.7-2.5-3.7Zm53-92.2 4.5-.3-4.5.3Zm-1-9.2-4.5.6 4.4-.6Zm-1-51.5 4.3 1-4.3-1ZM837.9 675l4.2 1.6-4.2-1.6Zm53.3-186.3-4.4-1v.9l4.4.1Zm24.3-99.2 4.4 1-4.4-1Zm4-48.2-4.5.4 4.5-.4Zm-3.5-47.8h-4.5v.4l4.5-.3Zm-82.2-86-.9 4.4 1-4.4Zm-59.7 12 2.6 3.8-2.6-3.7Zm-17.5 9.7 1.5 4.3-1.5-4.3ZM712.4 219l-2.7 3.6 2.7-3.6Zm-81.6-11.4 1.5 4.2-1.5-4.2Zm-51 24.4-2.3-3.8 2.3 3.8Zm-8.4 5 2.3 3.8-2.3-3.9Zm-57.6 50-3.3-3 3.3 3Zm-61 137.8-4.4-1 4.4 1Zm-1.4 84.8-4.5.2 4.5-.2ZM401 647l3.5 2.7-3.5-2.7Zm-19.5 27-4-2.2 4 2.2Zm-10.2 60-4.3 1.2 4.3-1.3Zm20.9 32 3-3.4-3 3.4Zm3 2.7 4.4.1v-2l-1.4-1.3-3 3.2Zm-2 72-.9 4.5 5.4 1.1V841l-4.4-.1Zm-79.6 6.6-1-4.4 1 4.4Zm-6.3 1.4-1-4.4 1 4.4ZM261.5 875l-4.4.8 2 10.7 6.1-9-3.7-2.5Zm-10.1-31.5 3.2-3.2-3.2 3.2Zm-45 2.3-.6-4.5-3.5.6-.3 3.5 4.5.4Zm-5.4 89 4.5-.2-4.5.2Zm16.5 49-1.1 4.3 1.1-4.3Zm21-16 4 2.1-4-2.1Zm.5-1 4 2.2-4-2.2Zm18.1-43.7-4.3-1.4 4.3 1.4Zm4.4-12.3-4-2 4 2Zm20.7 3-1.4 4.3 1.4-4.3Zm54.1 13.4.8-4.5-.8 4.5Zm85 4.2-.2-4.5.1 4.5Zm7-.2 4.5-.1v-4.6l-4.6.2.2 4.5Zm3 41.8-4.5.8 4.4-.8Zm.6 4.1-4.4.8 4.4-.8Zm17.1 33-.8 4.5.8-4.5Zm16.3-19-4.3-1.5 4.3 1.4Zm3.3-9.6 4.2 1.5-4.2-1.5Zm29.4-36.8-.3-4.4h-.7l-.6.3 1.6 4.1Zm93.6-86 .3 4.5-.3-4.5Zm47.6 4.6-1.3 4.3 3.8-8.1-2.5 3.8Zm-54.6-4.2.2 4.5-.2-4.5Zm-11.3.7h-4.5v5.2l5.2-.7-.7-4.5Zm0-56.5 2.2-4-6.7-3.6v7.6h4.5Zm11.4 2.6.3 4.5-.3-4.5Zm1.5 0 4.2-1.7-1.1-2.8h-3v4.5Zm20 31.9-3.2 3.1 3.3-3.1Zm-177.9 44.6-3.3-3-1.1 1.3v1.7h4.5Zm37.3-1.9 1.3-4.3-1.3 4.3Zm26.9 16.6-3.3-3 3.3 3Zm33.5-23.8-1.7-4.2 1.7 4.2Zm-97.8 25 4.5.1h-4.5Zm149.4-94.2-1.5 4.2 1.5-4.2Zm-38.4-26.3 4-2.2-.2-.4-.3-.3-3.5 2.9Zm94.3-198.4 4.1 1.7-4.1-1.7Zm6.7-50-4.5.3 4.5-.3Zm-6.6 418.2c-25.8-1.4-48-3.1-67-4.6l-.7 9c19 1.5 41.3 3.2 67.2 4.6l.5-9Zm114-16.6c-9.7 6.6-26 11.4-46.4 14.3a364.8 364.8 0 0 1-67.6 2.3l-.5 9c24.2 1.3 48.4.5 69.3-2.4 20.8-2.9 38.8-8 50.3-15.7l-5-7.5Zm51.1-88.1c1.8 25.5-3.8 42.5-13.1 55.5-9.5 13.2-23 22.6-38 32.6l5 7.5c14.9-10 29.7-20.2 40.3-34.9 10.7-14.9 16.7-34 14.8-61.3l-9 .6Zm-1-9c.5 4 .9 7 1 9l9-.6-1.1-9.5-9 1.2Zm-.9-53.1c-2 8.1-2.2 18-1.7 27.5.5 9.4 1.7 18.7 2.6 25.7l8.9-1.2c-.9-7-2-16-2.5-25-.5-9.2-.3-18 1.4-24.8l-8.7-2.2Zm37-107.3c-15 39.1-29.3 76.7-37 107.3l8.7 2.2c7.6-30 21.7-67 36.6-106.3l-8.4-3.2Zm53-184.8c-1 25-8 55-18 86.9-9.9 31.9-22.7 65.5-35 98l8.3 3.1c12.4-32.4 25.3-66.3 35.4-98.5 10-32.1 17.3-63 18.2-89.2l-9-.3ZM911 388.5l-24.3 99.2 8.8 2.2 24.3-99.2-8.8-2.2Zm4-46.7c1 15.7-.2 31.4-4 46.7l8.8 2.2c4-16.2 5.3-33 4.1-49.6l-9 .7Zm-3.6-47.9 3.5 47.9 9-.7-3.5-47.8-9 .6ZM833 212c22.9 4.7 42.6 19.2 56.7 35.8 7 8.3 12.5 17 16.3 25.2a52.5 52.5 0 0 1 5.6 20.7h9c0-7.2-2.4-15.7-6.5-24.5-4-8.9-10-18.3-17.6-27.2a112 112 0 0 0-61.7-38.7L833 212Zm-56.2 11.5c6.6-4.5 13-8.7 21.4-11.2a71.4 71.4 0 0 1 34.8-.2l1.8-8.8a80.2 80.2 0 0 0-39 .4c-10 2.9-17.5 7.9-24 12.3l5 7.5ZM758 233.6c7.2-2.5 13-6.5 18.6-10.2l-5-7.5a71.8 71.8 0 0 1-16.5 9.2l3 8.5Zm-48.5-11c19 14.2 36.5 15.1 48.5 11l-3-8.5c-8.8 3-23.3 2.9-40-9.7l-5.5 7.2Zm-77.4-10.8c16-5.5 29-7.4 41.2-5.7 12 1.7 23.6 7 36.2 16.5l5.4-7.2a87 87 0 0 0-40.4-18.2c-14-2-28.6.3-45.4 6.1l3 8.5ZM582 236a396.5 396.5 0 0 1 26-14.6c6.4-3 12.6-5.4 24.2-9.5l-3-8.5c-11.5 4-18.2 6.6-25.2 10-6.9 3.3-14 7.5-26.6 14.8l4.6 7.8Zm-8.4 4.9 8.4-4.9-4.6-7.8-8.3 5 4.5 7.7ZM517.1 290c21.4-23.7 39.7-39.3 56.5-49.2l-4.5-7.8c-18 10.5-37 27-58.7 51l6.7 6Zm-60 135.8c10.6-47.4 27.7-100.3 60-135.8l-6.7-6c-33.9 37.3-51.4 92.2-62.1 139.8l8.8 2Zm-1.3 83.6a1025 1025 0 0 1-1.6-46.2c0-14.8.7-27.9 2.9-37.4l-8.8-2c-2.4 10.6-3.1 24.6-3 39.5 0 15 .8 31.2 1.5 46.5l9-.4Zm1.4 39c0-11.2-.7-24.9-1.4-39l-9 .4c.7 14.3 1.4 27.6 1.4 38.6h9Zm-52.8 101.3c11-14 24-31 34.4-48.5 10.3-17.3 18.4-35.8 18.4-52.8h-9c0 14.5-7 31.2-17.1 48.2a492 492 0 0 1-33.8 47.6l7.1 5.5Zm-19 26.5c3.5-6.4 10.5-15.4 19-26.5l-7-5.5c-8.4 10.8-16 20.5-20 27.6l8 4.4Zm-9.9 56.4a56.4 56.4 0 0 1-1.8-28.2 97 97 0 0 1 11.6-28.2l-7.8-4.4c-6 10.8-10.6 20.6-12.6 30.8a65.4 65.4 0 0 0 2 32.6l8.6-2.6Zm19.6 30c-6.8-6.2-14.6-13.3-19.6-30l-8.6 2.6c5.7 19 15 27.5 22.1 34l6.1-6.6Zm3 2.9-3-2.9-6 6.7 2.8 2.7 6.2-6.5Zm-.4 75.4 1.8-72-9-.3-1.8 72 9 .3Zm-83.2 10.8c8-1.9 22-4.7 36.9-6.4 15-1.8 30.1-2.4 40.9-.1l1.8-8.8a145.7 145.7 0 0 0-43.8 0 381.5 381.5 0 0 0-37.8 6.5l2 8.8Zm-6.4 1.4 6.4-1.4-2-8.8-6.3 1.4 2 8.8Zm-42.9 24.5a50.1 50.1 0 0 1 19.2-17.5c6.8-3.3 14.3-5 23.7-7l-1.9-8.8c-9.2 2-17.8 3.8-25.8 7.8a59 59 0 0 0-22.6 20.3l7.4 5.2Zm-17-31c.7.7 1.6 2.2 2.7 4.8a195.5 195.5 0 0 1 6.2 24.4l8.9-1.6c-.6-3.3-1.9-10-3.7-16.6-.9-3.3-2-6.7-3.1-9.6a23.8 23.8 0 0 0-4.6-7.7l-6.4 6.4Zm-41 3.6c6.5-1 16.7-2.5 25.7-3.2a107 107 0 0 1 15.2 0c1 .1.7.3.1-.3l6.4-6.4a9.1 9.1 0 0 0-4.7-2.2 31 31 0 0 0-5-.5c-3.6-.1-8 0-12.7.4-9.3.8-19.8 2.2-26.4 3.3l1.4 9Zm-1.7 84.4c-.2-4.1.6-19.7 1.7-37.8 1.1-18 2.6-38 3.8-50.6l-9-.8c-1.2 12.8-2.6 32.9-3.8 50.9-1 17.8-1.9 34-1.7 38.7l9-.4Zm13.2 44.8c-1-.2-2.6-1.5-4.5-5.1-1.9-3.4-3.4-8-4.7-13.1a153 153 0 0 1-4-26.6l-9 .4c.3 5.7 1.6 17.5 4.3 28.4a69.3 69.3 0 0 0 5.4 15.1c2.2 4.1 5.4 8.4 10.2 9.6l2.3-8.7Zm15.8-13.8c-1.5 2.8-3.8 7-6.8 10.1-3 3.2-6 4.5-9 3.7l-2.3 8.7c7.7 2 13.8-2 17.8-6.1 4-4.2 6.8-9.4 8.2-12l-7.9-4.4Zm.6-1-.6 1 8 4.3.5-1-7.9-4.3Zm17.7-43c-3.7 11.4-8.9 27-17.7 43l7.9 4.4c9.3-16.8 14.7-33.2 18.4-44.5l-8.6-2.8Zm4.7-12.7c-1.5 3-3 7.6-4.7 12.8l8.6 2.8c1.8-5.5 3-9.4 4.2-11.8l-8.1-3.8Zm26 .6c-6.1-1.9-11.2-3.5-15-4.2-1.8-.3-3.8-.5-5.6-.3a7 7 0 0 0-5.4 3.9l8.1 3.8c-.5 1.1-1.5 1.3-1.4 1.2.3 0 1 0 2.7.3 3 .6 7.6 2 14 4l2.6-8.7Zm53.6 13.2c-23.4-4-41.2-9.4-53.6-13.2l-2.7 8.6c12.5 3.8 30.7 9.5 54.8 13.5l1.5-8.9Zm84 4.2c-33.5 1-50.7 1.4-84-4.2l-1.5 9c34.2 5.7 52.1 5.1 85.8 4.2l-.3-9Zm7.1-.2-7 .2.2 9 7-.2-.2-9Zm7.5 45.5c-1-6-2.4-23-2.9-41.1l-9 .2c.5 18.3 1.8 35.7 3 42.5l8.9-1.6Zm.7 4.2-.7-4.2-8.9 1.6.7 4 8.9-1.4Zm13.4 29.3c-3.8-.7-6.5-3.3-8.6-8.5a104 104 0 0 1-4.8-20.8l-8.9 1.5c1.3 7.8 2.7 16.1 5.3 22.6 2.8 6.8 7.3 12.6 15.4 14l1.6-8.8Zm11.2-16a60 60 0 0 1-5.6 14 5 5 0 0 1-2.2 1.9c-.6.2-1.6.4-3.4.1l-1.6 8.9c3 .5 5.8.4 8.4-.7 2.6-1 4.6-2.9 6.1-5 2.8-4 4.8-10 6.9-16.4l-8.6-2.9Zm3.3-9.7-3.3 9.6 8.6 2.9 3.2-9.5-8.5-3Zm32.1-39.4c-7.4 2.8-14 8.8-19.3 15.8a89 89 0 0 0-12.8 23.6l8.5 3a80 80 0 0 1 11.4-21.1 38.6 38.6 0 0 1 15.5-13l-3.3-8.3Zm70.2 2.4c-29.8-2.3-52.3-4.1-69-2.7l.8 9c15.8-1.4 37.4.3 67.5 2.7l.7-9Zm25.3-79.8c7.8-.4 29.4-.8 46 4.4l2.7-8.6a154.8 154.8 0 0 0-49.2-4.8l.5 9Zm-7.1.4 7-.4-.4-9-7 .4.4 9Zm-10.8.7c2-.3 5.8-.5 10.8-.7l-.4-9c-4.8.2-9.1.4-11.7.8l1.3 8.9Zm-5.2-61v56.5h9v-56.5h-9Zm15.6-1.8a14 14 0 0 1-3.5-.1c-1.3-.2-3-.7-5.4-2l-4.3 7.9c3.1 1.7 5.8 2.6 8.2 3 2.4.4 4.4.2 5.6.1l-.6-9Zm1.8-.1h-1.8l.6 9h1.2v-9Zm23.3 33.3a93.6 93.6 0 0 1-17.8-27.5 98.3 98.3 0 0 1-1.2-2.9v-.1l-4.3 1.7-4.1 1.7v.2a64 64 0 0 0 1.5 3.2c1 2 2.3 5 4.1 8.2 3.6 6.6 8.8 15 15.3 21.7l6.5-6.2Zm29.7 28.6 2.5-3.8-.2-.2a187.8 187.8 0 0 1-12.2-8.4c-7-5-15-11.2-19.8-16.2l-6.5 6.2c5.5 5.7 14 12.2 21 17.3a383.5 383.5 0 0 0 12.5 8.7h.2v.1l2.5-3.7Zm-207.5 22c-.3.4-.4.3.2 0l2.3-.8a59.6 59.6 0 0 1 30.2.3l2.5-8.6a68.6 68.6 0 0 0-35.2-.3c-1.4.4-2.6.8-3.6 1.3-1 .4-2.2 1.1-3.1 2.2l6.7 6Zm32.7-.5C484 890.6 485 898 485 899h9c0-7-5.8-16.6-27.1-22.8l-2.5 8.6ZM485 899a4.8 4.8 0 0 0 6.5 4.7c.7-.2 1.2-.5 1.4-.7 1-.7 2-2 2.9-2.9l-6.6-6-1.3 1.3-.4.4.7-.4c.5-.2 1.8-.6 3.3 0 1.6.8 2.1 2.1 2.3 2.7l.2 1h-9Zm10.8 1.1c4.4-4.8 14-15.2 32-22.7l-3.5-8.3a95.2 95.2 0 0 0-35.1 25l6.6 6Zm32-22.7c13.2-5.4 21-8.3 27.2-10 6-1.6 10.4-2 16.8-2.8l-1-8.9c-6.3.7-11.4 1.2-18.1 3-6.7 1.9-15.1 4.9-28.4 10.4l3.5 8.3ZM392.2 772.2c3.5 2.8 6.8 5.5 11.4 7.4a48.1 48.1 0 0 0 18.2 2.7v-9c-7.5 0-11.8-.8-14.9-2a35 35 0 0 1-9-6l-5.7 7Zm40.6 158.9c-.3-14-.2-23.1 0-32.7l-9-.1c-.2 9.6-.3 18.8 0 33l9-.2Zm0-32.7v-16h-9v15.9l9 .1Zm193-105.9a82.1 82.1 0 0 1-24.8 7.6 53.9 53.9 0 0 1-22-.3l-2.9 8.5c6.7 2.2 16.6 2 26.2.7a91 91 0 0 0 27.8-8.5l-4.2-8ZM530.6 738c0-15.1 2.3-26.2 6.8-35a56.7 56.7 0 0 1 22.1-22.2l-4.7-7.7c-11.4 7-19.9 15-25.4 25.7a83.6 83.6 0 0 0-7.8 39.2h9Zm48.5 61.9a96 96 0 0 1-21-9.8 43 43 0 0 1-14.8-14.4l-8 4.3c4 7.2 10.7 13 18 17.7 7.2 4.7 15.4 8.2 23 10.7l2.8-8.5ZM542.8 775a62.5 62.5 0 0 1-12.2-37h-9c0 15.7 5.7 32 14.2 42.7l7-5.7Zm47.4-130.6C605 630 626.5 608 637.6 581l-8.3-3.5c-10.3 25-30.7 45.9-45.4 60.2l6.2 6.5Zm47.5-63.2c8.9-21.3 7.9-37.8 7.1-52l-9 .6a98.3 98.3 0 0 1-6.4 48l8.3 3.4Zm7.1-52c-.2-3.9-.4-7.5-.4-11h-9c0 3.8.2 7.7.4 11.6l9-.5Zm-253 316 14.9 4.9 2.8-8.6-14.8-4.9-2.8 8.5Zm145-71a29 29 0 0 1-9.6 5c-2.6.6-5.9.6-12.3-.6l-1.6 8.9a39.4 39.4 0 0 0 16 .5c4.4-1 8.1-3.4 12.6-6.4l-5.1-7.5Z"/><path xmlns="http://www.w3.org/2000/svg" fill="#fff" stroke="#000" stroke-width="7" d="M942.7 347.8h-.1v.2a20.7 20.7 0 0 1-6.5 6.4 14.5 14.5 0 0 1-7.4 2.6c-2.4 0-6.4-1.8-9.6-4.9-9-10-10.7-18.2-8.6-26.3 3.4-12.3 9.8-18.8 16-19.8 4.6 0 7.5 1 9.9 3.4 2.7 2.7 5.2 7.3 8.2 15.6 3 8.2 3.1 15.7-2 22.8Z"/><path xmlns="http://www.w3.org/2000/svg" stroke="#000" stroke-miterlimit="10" stroke-width="9" d="M885.5 303.9s4.5-26.3 30.6-14.1"/><path xmlns="http://www.w3.org/2000/svg" fill="#598C3E" stroke="#000" stroke-miterlimit="10" stroke-width="9" d="M875 703s59.6-212.6-8.2-228c-103-40-129.6 117-76.1 276.2 17.8 79.8 88.3 9.3 205 6.1 17.8-.3 62.7-20.2 59-29.5-3.3-8.5-7.3-7.5-14.4-6 10.2-2 17.2-12.4 11.7-20.8s-17.9.3-17.9.3 14.1-11.9 9.1-17.2c-5-5.3-13-5.6-22.8 1.7 14.2-7.4 13.2-18 11-20.3-10.5-9.2-17-.2-23.3.8-39.5 21.7-71.3 21.3-133.2 36.6Z" class="bodyfill"/><path xmlns="http://www.w3.org/2000/svg" fill="#AD5E39" stroke="#000" stroke-miterlimit="10" stroke-width="6" d="M920.2 379.4s-54-15-58 20 64 27 66 23c8-6 17-33-8-43Z"/><path xmlns="http://www.w3.org/2000/svg" stroke="#070707" stroke-width="8" d="M889.4 397.3a41.2 41.2 0 0 0 37.3 13.5l7.6-1.2"/><path xmlns="http://www.w3.org/2000/svg" fill="rgba(0,0,0,0.15)" fill-rule="evenodd" d="M906.2 329.8c-1.6 8-2 12.6-.4 17.2 1.5 4.6 1.8 4.8 3.6 6l1.1.9a8.1 8.1 0 0 0 5 1.6v-2.2l-1-1.2c-1.5-1.8-2.8-3.3-5.2-8a26.9 26.9 0 0 1-3.1-14.3Zm-35.3 98.4a26.4 26.4 0 0 1-10.8-18.7c5.8 11.7 13.6 15.2 24.9 17.7a69 69 0 0 0 13.1 1.7l3 .2-2.1 9c-9.5-1.4-20.1-3.6-28.1-9.9Zm-432.6 20.5c-.8 1.8 1.7 70.8 2.6 81.5 3.5 41.5-30.6 84.8-47.1 105.8-5.8 7.3-9.5 12-8.6 12.8 3.5 3.2 5.6 4 5.6 4l10-13.2c7.7-9.7 14.8-18.8 28.6-40.2 1.4-3 3.1-5.9 5-9A81.6 81.6 0 0 0 448 537c-.7-9.2-2.7-80.8-2.3-97.2 0 0-6.7 7-7.4 8.8ZM767.9 683c.6 36.3 4.8 50 8.7 62.5l.1.4.9 2.6c1.7 5.7 2.8 9.2 4.1 12.6 2.1 5.3 4.9 10.4 12 23.5l.7 1.3 1 2 1.8-9.3a173 173 0 0 1-14.4-37.2c-3.5-11.4-9.2-34.4-14.9-58.4ZM614.1 838.9c-4.5-4-13.4-11.7-21-29 10.8-.6 24.8-3.4 36.6-9.2-14.3 17.8-2.7 42.4 11.9 58.6a291.6 291.6 0 0 1-26-19c-.4-.5-.9-1-1.5-1.4ZM538 784c5.3 7.1 21.8 19.2 30.7 21.3V856l-1 .1h-.8c-4.4.6-7 .9-12 2 1.6-23.7-12-50.5-41.6-70.6 9.5 1.8 16.9 1.6 24.6-3.4Zm-140.3 53.5 1.5-60c6 3.4 12.3 4.7 22.5 4.7-12.9 9.4-12.6 40.6-12.5 54.3v4.8c-5.8-1.8-11.5-3.8-11.5-3.8Zm25.9 89.4-31 .5a69.2 69.2 0 0 0 27.6-36l3.6-10.7-.2 46.2Z" clip-rule="evenodd"/><path xmlns="http://www.w3.org/2000/svg" d="M938.8 336.1s-19.6-7.7-15.7 11.6c4 19.2 26.2-1.3 15.7-11.6Z"/></g><g id="b"><path xmlns="http://www.w3.org/2000/svg" fill="#598C3E" stroke="#000" stroke-width="9" d="M378 415.6c10.1-10 22-19.5 26.8-23 21.1-16 45.6 4.2 56.5 20.7 13.5 20.7 5.5 55.6 1 77.5-3.7 17.5-30.3 56-44 73.1 38 19.6 116.1 60.9 126 69a42.6 42.6 0 0 1 10.5 50c-8.7 19.2-77-2.2-96.3-8.4-19.1-6.2-103-40.6-142.6-63.4-39.6-22.9-5.9-76.5-1.4-89.2 4.5-12.7 50.7-94 63.4-106.3Z" class="bodyfill"/><path xmlns="http://www.w3.org/2000/svg" fill="#598C3E" fill-rule="evenodd" d="M504.6 936.9c28 4 101.3 10.3 131.7 10.3 38 0 99.7-7.4 116.9-17.3l9.8-5.7c35.8-20.5 47.2-27 52.7-75.4 3.2-28.2 4.6-112.1 6-196.7 1-55.5 1.9-111.3 3.3-151.7l20-127.6 12.2-91.5v-5.9c.2-27.8.7-83.7-34.6-108.4-38.2-26.8-54.1-32.2-77.1-34.7l-2-.2c-11-1.3-32.8-3.8-52.2 9-7 4.6-11 8.7-14.5 12.1-6.7 6.7-11 11-29.5 12.3-21.4 1.3-31.6-4.6-41-10.1-7.5-4.4-14.5-8.5-26.5-8.5-27 0-44.2 2.1-72.2 28.6s-57.9 58.7-78.9 97.2c-19.6 36-25 58.2-27.5 86.3-3 34.1-5.4 84.7-1.3 103 6.5 29.4 8.6 48.9 8.6 84 0 36.2-21 76.2-34.1 101.4-2.8 5.3-5.2 10-7 13.8-10.5 22-16.6 45.5-9.8 68 4.1 13.7 16.2 25.8 25.3 34.9 4.4 4.4 8.1 8 9.8 10.9l3.6 60.9c-23-5-65.4 1.2-81.6 5l-5.9 1.2c-18.6 4.1-30.5 6.7-44.1 26.3-1.2-6.5-6.9-23.8-12-29-3.5-3.5-31.4.8-44.5 3-2.4 25.5-4.4 78.7-4 87.5.5 11 5 46 16.5 49 10.7 2.8 18-10.6 21-16l.5-1c9-16.4 14.3-32.5 18-43.8 1.8-5.3 3.2-9.5 4.4-12.2 1.3-2.7 7.5-.5 18.4 3.5 12.8 4.6 32 11.6 57.7 16 21.2 3.5 38.5 3.5 57 3.4 12.8 0 26.3-.1 42.2 1 .4 18.3 1.1 34 2.3 40.6l1.2 8.4c1.9 13.2 3.2 22.7 14 24.5 10.8 2 13-4.2 19.1-21.3l1.2-3.1c5.5-15.6 14.3-37.1 27-42Zm59.9-148c6.7 3.6 15.5 8.4 23.9 10.7a107 107 0 0 0 15.7 2.9c4.5.5 8.3 1 11.2 2.2l1.6 14.4a83 83 0 0 0 6.3 24.2l5.7 13.3-10.3-1c-8.4-1-18.8-2-24-1.8-7 .4-31 3.8-38.6 5l-2 .2 3.3-74 7.2 3.9Z" class="bodyfill" clip-rule="evenodd"/><path xmlns="http://www.w3.org/2000/svg" d="m504.6 936.9.6-4.5-1.2-.2-1 .5 1.6 4.2Zm248.6-7-2.3-4 2.3 4Zm9.8-5.7 2.2 4-2.2-4Zm52.7-75.4-4.4-.5 4.4.5Zm6-196.7h-4.5 4.5Zm3.3-151.7-4.4-.7v.5l4.4.2Zm20-127.6 4.4.7v-.1l-4.4-.6Zm12.2-91.5 4.4.6v-.6h-4.4Zm0-5.9h4.5-4.5ZM822.5 167l2.6-3.7-2.6 3.7Zm-77.1-34.7.5-4.5-.5 4.5Zm-2-.2-.4 4.5.5-4.5Zm-52.2 9 2.5 3.7-2.5-3.7Zm-14.5 12.1 3.2 3.2-3.2-3.2Zm-29.5 12.3.3 4.4-.3-4.4Zm-41-10.1 2.3-3.9-2.3 3.9Zm-98.7 20.1-3.1-3.2 3 3.2Zm-78.9 97.2-4-2.2 4 2.2ZM401.1 359l-4.5-.4 4.5.4Zm-1.3 103-4.4 1 4.4-1Zm-25.5 185.4 4 2.1-4-2Zm-7 13.8-4.1-2 4 2Zm-9.8 68-4.3 1.3 4.3-1.3Zm25.3 34.9-3.2 3.1 3.2-3.1Zm9.8 10.9 4.5-.3v-1l-.6-1-3.9 2.3Zm3.6 60.9-1 4.4 5.8 1.2-.3-6-4.5.4Zm-81.6 5 1 4.3-1-4.3Zm-5.9 1.2 1 4.4-1-4.4Zm-44.1 26.3-4.5.7 2 10.7 6.1-8.9-3.6-2.5Zm-12-29 3.1-3.2-3.1 3.2Zm-44.5 3-.8-4.5-3.4.6-.3 3.4 4.5.5Zm-4 87.5 4.4-.3-4.4.3Zm16.5 49-1.2 4.3 1.2-4.3Zm21-16 3.9 2-4-2Zm.5-1 3.9 2.1-4-2.1Zm18-43.8-4.3-1.4 4.3 1.4Zm4.4-12.2-4-2 4 2Zm18.4 3.5 1.5-4.2-1.5 4.2Zm57.7 16-.8 4.4.8-4.4Zm57 3.4v-4.5 4.5Zm42.2 1h4.5l-.1-4.1-4.1-.3-.3 4.5Zm2.3 40.6-4.5.7 4.4-.7Zm1.2 8.4-4.4.7 4.4-.7Zm14 24.5-.8 4.5.8-4.5Zm19.1-21.3 4.3 1.5-4.3-1.5Zm1.2-3.1-4.3-1.6 4.3 1.6Zm110.8-179.3-1.2 4.4 1.2-4.4Zm-24-10.8-2 4 2-4Zm39.7 13.7.5-4.5-.5 4.5Zm11.2 2.2 4.5-.5-.3-2.7-2.5-1-1.7 4.2Zm1.6 14.4 4.4-.5-4.4.5Zm6.3 24.2 4.1-1.8-4.1 1.8Zm5.7 13.3-.2 4.5 7.3.4-3-6.7-4 1.8Zm-10.3-1-.5 4.4.5-4.4Zm-24-1.8.3 4.5-.3-4.5Zm-38.6 5-.6-4.5.6 4.4Zm-2 .2-4.5-.2-.2 5.4 5.4-.7-.7-4.5Zm3.3-74 1.8-4-6-2.7-.3 6.6 4.5.2ZM439 866.5l-3.4-3-1.1 1.3v1.7h4.4Zm32.4-2 1.3-4.4-1.3 4.4Zm30 24.7-4-2.1 4 2.1Zm27.5-20.7 1.8 4.1-1.8-4.1Zm-133.4-91.8 2.2-4-2.2 4Zm154.7-3.2 3.6-2.8-3.6 2.8Zm-3.7 3.4 3 3.3-3-3.3Zm-19.3 12-.9-4.3 1 4.4Zm71-233.7-4.4-.5 4.5.5Zm.7-6.7-4.4-.5 4.4.5Zm37.3 394.3c-30 0-103.3-6.3-131.1-10.3l-1.3 9c28.2 4 101.8 10.3 132.4 10.3v-9ZM751 926a77 77 0 0 1-18.9 6.4c-8.6 2-19 3.9-30 5.4-22.2 3-46.9 4.9-65.7 4.9v9c19.3 0 44.4-1.9 66.9-5 11.3-1.6 22-3.4 30.9-5.6a84.7 84.7 0 0 0 21.4-7.4L751 926Zm9.9-5.7L751 926l4.6 7.7 9.7-5.6-4.4-7.8Zm50.5-72c-2.8 24-7 36.7-14.2 45.9-7.3 9.4-18.2 15.7-36.3 26.1l4.4 7.8c17.7-10 30.4-17.3 39-28.4 8.8-11.2 13.2-26 16-50.4l-9-1Zm6-196.2c-1.5 84.7-2.9 168.3-6 196.2l8.9 1c3.3-28.5 4.6-112.7 6-197l-9-.2Zm3.3-152c-1.5 40.6-2.4 96.4-3.4 152l9 .1c1-55.5 1.9-111.3 3.3-151.7l-9-.3Zm19.8-128-19.8 127.6 8.9 1.3 19.8-127.5-8.9-1.4Zm12.2-91.4-12.2 91.5 9 1.2 12.1-91.5-8.9-1.2Zm0-5.3v5.9h9v-5.8l-9-.1ZM820 170.6c16.3 11.4 24.7 30.3 28.8 50.3 4.2 20 4 40.5 3.9 54.5h9c.1-13.8.3-35.2-4-56.3-4.4-21-13.5-42.5-32.5-55.8l-5.2 7.3Zm-75-33.8c11.2 1.2 20.5 3 31.6 7.9a255.4 255.4 0 0 1 43.4 26l5.2-7.4a263.8 263.8 0 0 0-45-26.9 110.8 110.8 0 0 0-34.2-8.6l-1 9Zm-2-.2 2 .2 1-9-1.9-.2-1 9Zm-49.2 8.2c17.8-11.7 38-9.5 49.3-8.2l1-9c-11.1-1.3-34.4-4-55.2 9.7l4.9 7.5ZM680 156.4c3.4-3.4 7.2-7.2 13.8-11.6l-5-7.5c-7.3 4.9-11.7 9.2-15.2 12.7l6.4 6.4Zm-32.4 13.5c9.5-.6 15.9-2 20.8-4.5 5-2.4 8.3-5.7 11.6-9l-6.4-6.4a33.5 33.5 0 0 1-9.1 7.4c-3.5 1.7-8.5 3-17.5 3.6l.6 9ZM604 159.3c4.7 2.7 10 5.8 17 8s15.4 3.4 26.6 2.6l-.6-9a63 63 0 0 1-23.3-2.2 70 70 0 0 1-15.1-7.2l-4.6 7.8Zm-24.2-8a43 43 0 0 1 24.2 8l4.6-7.8c-7.6-4.4-15.5-9.1-28.8-9.1v9Zm-69.2 27.5a97.4 97.4 0 0 1 35-23.3c10.4-3.6 20.8-4.1 34.2-4.1v-9c-13.5 0-25.3.5-37.2 4.6-12 4.1-23.9 11.7-38.1 25.3l6.1 6.5Zm-78 96c20.8-37.9 50.2-69.6 78-96l-6.1-6.5c-28.2 26.6-58.4 59.1-79.7 98.2l7.9 4.3Zm-27 84.6c2.5-27.5 7.8-49.1 27-84.6l-7.8-4.3c-20 36.5-25.6 59.4-28 88.1l8.9.8ZM404.3 461c-2-8.5-2.3-25.2-1.9-44.5.5-19 1.8-40.1 3.3-57.1l-9-.8a986.8 986.8 0 0 0-3.3 57.7c-.4 19.1 0 36.9 2 46.6l8.9-2Zm8.7 85a343 343 0 0 0-8.7-85l-8.8 2c6.4 29 8.5 48.2 8.5 83h9Zm-34.6 103.5c6.6-12.6 15.2-29 22.2-47A160 160 0 0 0 413 546h-9c0 17.3-5 35.8-11.8 53.2a457.7 457.7 0 0 1-21.8 46.1l8 4.2Zm-7 13.6 7-13.6-8-4.1c-2.8 5.2-5.2 10-7.1 13.8l8.1 4Zm-9.5 64.8c-6.3-21-.8-43.2 9.5-64.8l-8.1-3.9c-10.7 22.4-17.3 47.2-10 71.3l8.6-2.6Zm24.2 33c-9.3-9.3-20.5-20.5-24.2-33l-8.6 2.6c4.5 15 17.6 28 26.4 36.7l6.4-6.3Zm10.5 11.8a36.6 36.6 0 0 0-4.4-5.6c-1.8-2-4-4-6.1-6.2l-6.4 6.3 5.9 6c1.6 1.8 2.7 3.1 3.3 4.1l7.7-4.6Zm4.2 62.9-3.6-60.9-9 .5 3.6 61 9-.6Zm-85.2 9.6a316 316 0 0 1 37.8-5.6c15.4-1.4 31.2-1.6 42 .7l1.8-8.8c-12.1-2.7-29-2.3-44.6-.9-15.7 1.5-30.6 4-39 5.9l2 8.7Zm-5.8 1.3 5.8-1.3-2-8.7-5.8 1.3 2 8.7ZM268.2 871a50.8 50.8 0 0 1 18.6-17.4 92.4 92.4 0 0 1 22.9-7l-2-8.7c-9.1 2-17.3 3.7-25 7.6a59.7 59.7 0 0 0-21.8 20.4l7.3 5.1Zm-18.8-28.4c.8.8 1.8 2.4 3 4.7a93.2 93.2 0 0 1 7.7 22l8.9-1.6a101.3 101.3 0 0 0-8.6-24.5c-1.3-2.6-2.9-5.1-4.7-7l-6.3 6.4Zm-40.6 4.3c6.6-1 16.7-2.7 25.6-3.6a105.5 105.5 0 0 1 15-.4c1 .2.6.3 0-.3l6.3-6.3a9 9 0 0 0-4.7-2.2 30 30 0 0 0-5-.5c-3.5 0-8 .3-12.5.7-9.2 1-19.6 2.6-26.2 3.7l1.5 8.9Zm-.3 82.8c-.3-8.4 1.7-61.4 4-86.8l-9-.9a1270 1270 0 0 0-4 88.2l9-.5Zm13.2 44.9c-1-.2-2.6-1.5-4.5-5.1-1.8-3.4-3.4-8-4.7-13.1a153 153 0 0 1-4-26.7l-9 .5c.3 5.7 1.6 17.5 4.3 28.3a69.4 69.4 0 0 0 5.4 15.2c2.2 4 5.4 8.4 10.2 9.6l2.3-8.7Zm15.9-13.8c-1.5 2.8-3.8 7-6.9 10.1-3 3.2-6 4.5-9 3.7l-2.3 8.7c7.7 2 13.8-2 17.8-6.2 4-4.1 6.8-9.4 8.3-12l-8-4.3Zm.5-1-.5 1 7.9 4.3.5-1-7.9-4.3Zm17.7-43c-3.7 11.3-8.8 27-17.7 43l7.9 4.3c9.3-16.7 14.7-33.2 18.4-44.5l-8.6-2.8Zm4.7-12.8c-1.4 3-3 7.7-4.7 12.8l8.6 2.8c1.8-5.4 3-9.3 4.2-11.7l-8.1-3.9Zm24 1.3c-5.4-2-10-3.7-13.4-4.5-1.6-.3-3.5-.6-5.2-.5a6.6 6.6 0 0 0-5.4 3.7l8.1 3.9a2.5 2.5 0 0 1-1.7 1.4h.7l1.6.3c2.7.7 6.7 2 12.3 4.1l3-8.4Zm56.8 15.7a307.8 307.8 0 0 1-56.9-15.7l-3 8.4c12.8 4.7 32.4 11.8 58.4 16.2l1.5-8.9Zm56.3 3.4c-18.6 0-35.4.1-56.3-3.4l-1.5 8.9c21.7 3.6 39.3 3.6 57.8 3.5v-9Zm42.5 1c-16-1.1-29.7-1-42.5-1v9c12.9 0 26.2-.1 41.8 1l.7-9Zm6.4 44.3c-1-6-1.8-21.5-2.2-39.9l-9 .3c.4 18.1 1.1 34.3 2.3 41.1l8.9-1.5Zm1.3 8.6-1.3-8.6-8.9 1.5 1.3 8.4 8.9-1.3Zm10.3 20.7c-2-.4-3.4-1-4.4-1.8-1-.8-1.9-2-2.6-3.6a61.3 61.3 0 0 1-3.3-15.3l-9 1.3c1 6.3 1.8 12.7 4 17.7 1.2 2.6 2.9 5 5.2 6.9 2.3 1.9 5.2 3 8.5 3.7l1.6-9Zm14-18.4c-1.4 4.3-2.7 7.8-3.9 10.6a26.8 26.8 0 0 1-3.1 6 4.9 4.9 0 0 1-2.5 1.8c-.8.3-2.2.4-4.6 0l-1.5 8.9c3.1.5 6 .6 8.8-.3 3-1 5.1-2.7 6.9-5 1.7-2.1 3-4.9 4.3-8 1.3-3 2.7-6.8 4.2-11l-8.5-3Zm1.2-3.2-1.1 3.2 8.5 3 1-3.1-8.4-3Zm29.6-44.6c-7.8 3-13.9 10.8-18.4 19a172 172 0 0 0-11.2 25.6l8.5 3c2.8-7.7 6.3-16.7 10.5-24.3 4.4-7.7 9.1-13.1 13.9-15l-3.3-8.3Zm86.7-137.4a115 115 0 0 1-23-10.4l-4.3 7.9c6.6 3.6 15.9 8.7 24.9 11.2l2.4-8.7Zm15 2.7a103 103 0 0 1-15-2.7l-2.4 8.7c6.2 1.7 11.8 2.4 16.3 3l1.1-9Zm12.4 2.5c-3.6-1.4-8-2-12.4-2.5l-1 9c4.6.5 7.7 1 10 1.9l3.4-8.4Zm4.3 18.1-1.5-14.4-9 1 1.6 14.3 9-.9Zm6 23c-3.1-7.4-5.1-15.1-6-23l-9 1c1 8.7 3.3 17.4 6.8 25.5l8.2-3.6Zm5.8 13.2-5.8-13.3-8.2 3.6 5.7 13.3 8.3-3.6Zm-15 5.2c4.2.5 8.1 1 10.6 1l.5-9c-2.2 0-5.8-.4-10.2-1l-1 9Zm-23.2-1.7c4.7-.3 14.6.8 23.2 1.7l1-9c-8.2-.8-19-2-24.7-1.7l.5 9Zm-38.2 4.9c7.7-1.1 31.5-4.5 38.2-5l-.5-8.9c-7.2.4-31.6 4-39 5l1.3 8.9Zm-2 .3 2-.3-1.3-9-2 .4 1.3 8.9Zm-2-78.6-3.2 74 9 .3 3.2-74-9-.3Zm14 0-7.6-4-3.7 8.3 7 3.6 4.2-7.9Zm-124.3 84.4c-.1.2.3-.3 2-1a48.5 48.5 0 0 1 25.9.3l2.5-8.6c-8.8-2.6-17-2.8-23.3-2-3.2.4-6 1.1-8.2 2-2 .7-4.2 1.8-5.6 3.4l6.7 6Zm27.9-.6a47 47 0 0 1 20.5 11.9c2.1 2.2 3.7 4.3 4.6 6 1.1 1.8 1.2 2.6 1.2 2.4h9c0-2.3-1.1-4.8-2.4-7-1.3-2.3-3.4-5-6-7.7a56 56 0 0 0-24.4-14.3l-2.5 8.7Zm26.3 20.3v.8l.1 1 .6 1.3a4.5 4.5 0 0 0 7.1.7l.7-.8.3-.7-7.9-4.3c-.1.2-.1.2 0 .2l.4-.6 1.1-.9a4.5 4.5 0 0 1 6.4 2.8l.1.7v-.2h-9Zm8.8 2.3c.6-1 2-3.5 5.6-6.9 3.6-3.4 9.7-7.7 19.8-11.9l-3.5-8.3c-10.9 4.5-18 9.4-22.5 13.6a34.5 34.5 0 0 0-7.3 9.2l8 4.3Zm25.4-18.8c11.3-4.7 18.8-7.5 24.5-9.2l-2.5-8.6c-6.3 1.8-14 4.7-25.5 9.5l3.5 8.3ZM390.7 779l2.7 1.5 4.4-7.8-3.2-1.8-4 8.1Zm2.7 1.5c3.8 2.2 9.5 5.4 17.2 6.1l.8-9c-5.5-.5-9.7-2.8-13.6-5l-4.4 8Zm50.9 149.2c-.6-21.2-.8-46-.8-63.3h-9c0 17.4.2 42.2.8 63.6l9-.3Zm232.1-144.6c-16.1 10.2-37.3 14.3-62.8 14.5l.1 9c26.2-.2 49.3-4.4 67.6-16l-4.9-7.5ZM545 742.3c0-15 2.3-28.7 6-39.7a49 49 0 0 1 13.5-22.6l-5.5-7a57.4 57.4 0 0 0-16.5 26.8 135 135 0 0 0-6.5 42.5h9Zm22.6 43.3a223 223 0 0 1-13.7-15l-7 5.6c3.3 4.3 9 10.5 14.3 15.8l6.4-6.4Zm-13.7-15a37 37 0 0 1-7.1-12.2 53 53 0 0 1-1.8-16.1h-9c0 7.6.5 13.5 2.2 18.8 1.7 5.4 4.5 10 8.6 15.1l7-5.6Zm-6.3-.8c-1.4 1.1-2.8 2.5-4.2 3.8l6.3 6.5c1.4-1.4 2.5-2.5 3.4-3.2l-5.5-7Zm-4.2 3.8a36.3 36.3 0 0 1-17 10.9l1.9 8.8c10-2.2 17-9 21.4-13.2l-6.3-6.5Zm-17 10.9a55.6 55.6 0 0 1-24.6 0l-1.5 8.8a64.4 64.4 0 0 0 28 0l-1.9-8.8Zm54.9-146.8c4-4 7.1-9.4 9.6-15.5 2.4-6.1 4.3-13.2 5.8-20.7 3-14.8 4.7-31.6 6.1-46l-9-.9c-1.3 14.5-3 30.8-5.9 45.1-1.5 7.2-3.2 13.7-5.4 19.2a35.6 35.6 0 0 1-7.5 12.4l6.3 6.4Zm21.5-82.2.7-6.7-9-.9-.6 6.7 9 1Zm.7-6.7c1.6-15.1.6-32.1-1.8-47.4a150.4 150.4 0 0 0-10.4-38.2l-8.2 3.9a183.8 183.8 0 0 1 11.4 80.9l9 .8Zm26 311c3.4 0 6.7 1.4 11.6 5l5.4-7.1a28 28 0 0 0-17-7v9Zm-235.5-20 11.7 6.5 4.3-7.9-11.6-6.5-4.4 7.9Z"/><path xmlns="http://www.w3.org/2000/svg" fill="#fff" stroke="#000" stroke-width="7" d="M866.4 249.3h-.1l-.1.2a20.7 20.7 0 0 1-6.4 6.4 14.5 14.5 0 0 1-7.4 2.6c-2.4 0-6.4-1.8-9.6-4.9-9-9.9-10.7-18.2-8.6-26.2 3.4-12.4 9.8-18.9 16-20 4.6.1 7.5 1.1 9.9 3.5 2.7 2.7 5.2 7.4 8.2 15.6 3 8.2 3.1 15.8-2 22.8Z"/><path xmlns="http://www.w3.org/2000/svg" d="M868.1 232.3s-19.6-7.7-15.7 11.5c4 19.3 26.2-1.3 15.7-11.5Z"/><path xmlns="http://www.w3.org/2000/svg" stroke="#000" stroke-miterlimit="10" stroke-width="9" d="M811 209.2s11-18.4 34-15.3"/><path xmlns="http://www.w3.org/2000/svg" fill="#598C3E" stroke="#000" stroke-miterlimit="10" stroke-width="9" d="M805.8 638.6S909.8 444 847 414.3c-92-61.2-151.7 86.4-133.7 253.4.3 81.8 84.2 28.1 198.8 50 17.6 3.6 65.7-6.2 64-16.1-1.3-9-5.5-8.9-12.7-9 10.4.3 19.5-8.4 15.9-17.8-3.6-9.4-17.5-3.5-17.5-3.5s16.3-8.6 12.6-14.8c-3.8-6.3-11.6-8.3-22.7-3.2 15.5-4.2 16.8-14.9 15-17.5-8.2-11.3-16.6-3.9-22.9-4.2-43.2 12.6-74.1 5.4-137.9 7Z" class="bodyfill"/><path xmlns="http://www.w3.org/2000/svg" fill="#AD5E39" stroke="#000" stroke-miterlimit="10" stroke-width="6" d="M854.8 292.3s-54-15-58 20 64 27 66 23c8-6 17-33-8-43Z"/><path xmlns="http://www.w3.org/2000/svg" stroke="#070707" stroke-width="8" d="M839.3 320.6h28.8"/><path xmlns="http://www.w3.org/2000/svg" fill="rgba(0,0,0,0.15)" fill-rule="evenodd" d="M831.1 241.2c1.4 8 3 17 6 20.8 3.6 4.5 6.7 5.3 10.3 5 3-.4 4.8-1.1 5.2-1.5V262c-2.8 0-7.3-1.2-11.8-5.6-3-2.8-5-5.5-9.7-15.2Zm-17.7 105c-8.8-5.3-13.2-10.6-13.7-15.6 5 5.8 17.5 10.2 28.8 11 7.5.5 10.3.5 15.2.3h.7l-1.2 9h-1.6c-9.2 0-20 .1-28.2-4.8ZM381 418.8a133 133 0 0 0 2.5 36.6c12.8 51.1 16 121.8-15.7 176.1l8 3.6 1-2.1c10.9-22.6 22.3-46.4 26-72.3 3-24-1.9-80.4-8.5-109.4-1.8-7.6-1.4-22-1-36l.2-8s-11.8 9.7-12.5 11.5Zm436.6 206.4-4.4 8.6h4.3l.1-8.6Zm-52.3 107.4-1.2-.2c-29.1-6.2-36.3-7.7-41.8-24.4 17.5 12.7 37 12 48.2 11.6l3-.1c7.4-.2 12.7-.5 18.5-1a675 675 0 0 1 24.3-1.1l-.8 21.3-1.8-.1c-28-2.2-32-2.5-48.4-6Zm-145.1 75.8a107 107 0 0 0 11 42.4 82 82 0 0 1 11.1 4.7l3.4 1.6c-5.6-25.5 6.2-41 35.4-64.6a115 115 0 0 1-33.4 12.9h-.6c-11.4 2-12.7 2.2-27 3Zm-119.7-15c12.7 6.8 16.5 8.8 28.7 25.3 6.9 9.1 12.7 21 16.4 28.8 2 4 3.3 6.9 4 7.6l2.6-59.4s.7-12.3.5-12.6l-2.9-3.3a44.2 44.2 0 0 0-4.1 3.5c-3.6 3.4-7.5 7-16.6 9.6a66.6 66.6 0 0 1-29 .3l.4.2Zm-103-10.6c-1.1 22.2 3 50.1 3 50.1s4.2 2.9 9.3 5.3c1.3-2.2.3-8.6-.8-16.3-1.9-12.5-4.2-28.4 1.4-35.3a36.5 36.5 0 0 1-12.8-3.8ZM396 924.4l39.5.5-1-60-9.1 18.4a131 131 0 0 1-16.9 26l-12.5 15Z" clip-rule="evenodd"/></g></defs><use class="f" href="#a"/><use class="f" display="none" href="#b"/><use class="f" display="none" href="#c"/><use class="f" display="none" href="#c"/><use class="f" display="none" href="#d"/>
    <script>
        //<![CDATA[
function e(l,n,r,e,o){var a=0;var i=parseInt(document.querySelectorAll(l+" "+n).length);function t(){a=0;_2=0;clearInterval(window._1)}function u(){t();_1=setInterval(c,e)}function c(){var e=a++;for(var t=0;t<i;t+=1){if(a>i){return false}document.querySelectorAll(l+" "+n)[t].style.display="none";document.querySelectorAll(l+" "+n)[e].style.display="block"}if(r==="no-repeat"){if(a===i){for(var t=0;t<i;t+=1){if(a>i){clearInterval(window._1);a=0;var e=i;return false}document.querySelectorAll(l+" "+n)[t].style.display="none";document.querySelectorAll(l+" "+n)[e].style.display="block"}}}else{if(a===i){setTimeout(function(){u()},o)}else if(e>=i){setTimeout(function(){u()},o)}}}window._1=setInterval(c,e);return false}e("",".f","repeat",150*Math.random(),0);
    //]]>
    </script>
</svg>